<svg id="Layer_1" data-name="Layer 1" xmlns="http://www.w3.org/2000/svg" viewBox="0 0 312.9 121.9"><defs><style>.cls-1{fill:#c5ba8a;}</style></defs><title>2019_polo_logo_dark_gold</title><g id="_Group_" data-name="&lt;Group&gt;"><g id="_Group_2" data-name="&lt;Group&gt;"><path id="_Path_" data-name="&lt;Path&gt;" class="cls-1" d="M186.7,83.5h17.6c7.9,0,10.1-2.8,17.3-32h2.6V84.8H166.7V83.5h7.1V3.2h-7.1V1.9h31.9V3.2H186.7V83.5Z"/></g><path id="_Compound_Path_" data-name="&lt;Compound Path&gt;" class="cls-1" d="M63.9,107.2h0l2.5,7.1h-5Zm.3-2.6L58.3,121H56.8v.5h4.6V121H59l2.2-6.2h5.4l2.1,6.2H66.8v.5h5.6V121h-1l-5.6-16.5H64.2Z"/><polygon id="_Path_2" data-name="&lt;Path&gt;" class="cls-1" points="129 104.7 129 105.3 130.7 105.3 130.7 112.6 124 112.6 124 105.3 125.7 105.3 125.7 104.7 119.7 104.7 119.7 105.3 121.2 105.3 121.2 121 119.7 121 119.7 121.6 125.7 121.6 125.7 121 124 121 124 113.1 130.7 113.1 130.7 121 129 121 129 121.6 135 121.6 135 121 133.5 121 133.5 105.3 135 105.3 135 104.7 129 104.7"/><path id="_Compound_Path_2" data-name="&lt;Compound Path&gt;" class="cls-1" d="M183.6,107.2h0l2.5,7.1h-5Zm.2-2.6-5.9,16.5h-1.5v.5H181V121h-2.4l2.2-6.2h5.4l2.1,6.2h-1.9v.5H192V121h-1l-5.6-16.5h-1.6Z"/><g id="_Group_3" data-name="&lt;Group&gt;"><path id="_Compound_Path_3" data-name="&lt;Compound Path&gt;" class="cls-1" d="M278.6,0c18,0,34.3,17,34.3,43.4s-16.3,43.4-34.3,43.4-34.3-17-34.3-43.4S260.6,0,278.6,0m0,85.4c13.2,0,19.5-10.7,19.5-42.1S291.8,1.2,278.6,1.2s-19.5,10.7-19.5,42.1,6.3,42.1,19.5,42.1"/><path id="_Compound_Path_4" data-name="&lt;Compound Path&gt;" class="cls-1" d="M113.8,0c18,0,34.3,17,34.3,43.4s-16.3,43.4-34.3,43.4-34.3-17-34.3-43.4S95.8,0,113.8,0m0,85.4c13.2,0,19.5-10.7,19.5-42.1S127,1.2,113.8,1.2,94.3,11.9,94.3,43.3s6.2,42.1,19.5,42.1"/><path id="_Compound_Path_5" data-name="&lt;Compound Path&gt;" class="cls-1" d="M0,84.8V83.5H7.1V3.2H0V1.9H34.2c18.9,0,29.2,9.1,29.2,21.7s-9.5,20.5-29,20.5H20V83.5H31v1.3Zm20-42H31.2c12.9,0,18.6-5.3,18.6-19.7,0-11.3-5.1-19.9-17.5-19.9H20Z"/></g><path id="_Path_3" data-name="&lt;Path&gt;" class="cls-1" d="M204.4,104.7v.5h-1.8v12.2c0,3,1.8,3.9,3.4,3.9a3.83,3.83,0,0,0,4.1-4.1v-12h-2.3v-.5h4.5v.5h-1.5v12.1c0,2.8-2,4.6-4.9,4.6-4.1,0-6-1.7-6-5V105.3h-1.5v-.5h6Z"/><path id="_Compound_Path_6" data-name="&lt;Compound Path&gt;" class="cls-1" d="M223.6,105.2h2.3c2.8,0,3.7,1.8,3.7,3.5,0,2.4-1.5,3.8-4.5,3.8h-1.5Zm2,16.3V121h-1.9v-8h.1l6.5,8.6h4V121H233l-6-8c3.7-.2,5.6-1.9,5.6-4.2,0-2.1-1.5-4.1-5.8-4.1h-7.4v.5h1.5V121h-1.5v.5Z"/><path id="_Path_4" data-name="&lt;Path&gt;" class="cls-1" d="M240.5,121.5V121H242V105.2h-1.5v-.5h12.9v5.4h-.6c-1.4-4.5-1.8-4.9-3-4.9h-5v7.3h2c1.3,0,1.9-.8,2.4-3.4h.6v7.2h-.6c-.5-2.6-1.1-3.3-2.4-3.3h-2v7.9h4.5c1.8,0,2.3-.7,3.8-5.7h.6v6.2H240.5Z"/><path id="_Path_5" data-name="&lt;Path&gt;" class="cls-1" d="M162.3,121h3.8c1.7,0,2.2-.3,3.7-6.2h.6v6.8H158.1V121h1.5V105.2h-1.5v-.5h6.8v.5h-2.5V121Z"/><path id="_Path_6" data-name="&lt;Path&gt;" class="cls-1" d="M83.4,121.3h3.8c1.7,0,2.2-.3,3.7-6.2h.6v6.8H79.2v-.5h1.5V105.6H79.2v-.5H86v.5H83.5v15.7Z"/><path id="_Compound_Path_7" data-name="&lt;Compound Path&gt;" class="cls-1" d="M103.7,105.6h2.6c2.6,0,3.7,1.6,3.7,3.9,0,2.9-1.2,3.7-4,3.7h-2.4v-7.6Zm2.4,16.3v-.5h-2.3v-7.7h3.1c4.2,0,6.2-1.7,6.2-4.2s-2.2-4.4-6.2-4.4H99.6v.5h1.5v15.8H99.6v.5Z"/><path id="_Compound_Path_8" data-name="&lt;Compound Path&gt;" class="cls-1" d="M41.3,105.3h2.3c2.8,0,3.7,1.8,3.7,3.5,0,2.4-1.5,3.8-4.5,3.8H41.3Zm1.9,16.3V121H41.3v-8h.1l6.5,8.6h4V121H50.7l-6-8c3.7-.2,5.6-1.9,5.6-4.2,0-2.1-1.5-4.1-5.8-4.1H37v.5h1.5V121H37v.5h6.2Z"/><polygon id="_Path_7" data-name="&lt;Path&gt;" class="cls-1" points="271.4 104.7 271.4 105.3 273.5 105.3 273.5 116.9 273.4 116.9 265.9 104.7 261.1 104.7 261.1 105.3 262.7 105.3 262.7 121 261.1 121 261.1 121.6 265.6 121.6 265.6 121 263.5 121 263.5 105.8 263.5 105.8 273.3 121.6 274.2 121.6 274.2 105.3 275.9 105.3 275.9 104.7 271.4 104.7"/></g></svg>