<?xml version="1.0" encoding="utf-8"?>
<!-- Generator: Adobe Illustrator 26.0.2, SVG Export Plug-In . SVG Version: 6.00 Build 0)  -->
<svg version="1.1" id="Layer_1" xmlns="http://www.w3.org/2000/svg" xmlns:xlink="http://www.w3.org/1999/xlink" x="0px" y="0px"
	 viewBox="0 0 441.3 129.1" style="enable-background:new 0 0 441.3 129.1;" xml:space="preserve">
<style type="text/css">
	.st0{fill-rule:evenodd;clip-rule:evenodd;fill:#1D2333;}
</style>
<g id="LP">
	<g id="_0202-AO-LP-DSK-V02">
		<g id="text">
			<g id="Logos_AO-POLO-LOCKUP-WHITE-CENTERED">
				<g>
					<g id="Group-4">
						<g>
							<path id="Fill-1" class="st0" d="M130.5,68.6c-10.4,0-18.8-8.4-18.8-18.8c0-10.4,8.4-18.7,18.8-18.7
								c10.4,0,18.8,8.4,18.8,18.8c0,0,0,0,0,0C149.2,60.2,140.8,68.6,130.5,68.6z M130.5,6.9c-23.7,0-42.9,19.2-43,42.9
								s19.2,42.9,42.9,43c23.7,0,42.9-19.2,43-42.9c0,0,0,0,0,0C173.5,26.1,154.2,6.9,130.5,6.9C130.5,6.9,130.5,6.9,130.5,6.9z"/>
						</g>
						<g>
							<polyline id="Fill-3" class="st0" points="50.1,8.9 36.2,8.9 0,91.2 26.8,91.2 43.2,48.6 59.5,91.2 86.3,91.2 50.1,8.9 
															"/>
						</g>
					</g>
				</g>
				<g>
					<polygon id="Fill-5" class="st0" points="197.5,100.1 198.8,100.1 198.8,0 197.5,0 					"/>
				</g>
				<g>
					<path id="Fill-6" class="st0" d="M141.2,123.5c0-2.2-1.8-4-4-4s-4,1.8-4,4s1.8,4,4,4S141.2,125.7,141.2,123.5z M131.6,123.5
						c0-3.1,2.5-5.6,5.6-5.6s5.6,2.5,5.6,5.6c0,3.1-2.5,5.6-5.6,5.6c0,0,0,0,0,0C134.1,129.1,131.6,126.6,131.6,123.5z"/>
				</g>
				<g>
					<polyline id="Fill-7" class="st0" points="146.4,118 152.6,118 152.6,119.6 148.1,119.6 148.1,122.7 152.6,122.7 152.6,124.2 
						148.1,124.2 148.1,129 146.4,129 146.4,118 					"/>
				</g>
				<g>
					<polyline id="Fill-8" class="st0" points="156.2,118 162.4,118 162.4,119.6 157.8,119.6 157.8,122.7 162.4,122.7 162.4,124.2 
						157.8,124.2 157.8,129 156.2,129 156.2,118 					"/>
				</g>
				<g>
					<polygon id="Fill-9" class="st0" points="166,129 167.7,129 167.7,118 166,118 					"/>
				</g>
				<g>
					<path id="Fill-10" class="st0" d="M171.3,123.5c0-3.1,2.5-5.6,5.6-5.6c0,0,0.1,0,0.1,0c2.5,0,4.6,1.6,5.3,4h-1.8
						c-0.6-1.5-2-2.5-3.6-2.5c-2.2,0-4,1.8-4,4s1.8,4,4,4c1.6,0,3-0.9,3.6-2.4h1.8c-0.9,3-4,4.7-7,3.8
						C172.9,128.2,171.3,126,171.3,123.5"/>
				</g>
				<g>
					<polygon id="Fill-11" class="st0" points="185.8,129 187.4,129 187.4,118 185.8,118 					"/>
				</g>
				<g>
					<path id="Fill-12" class="st0" d="M193.8,125.1h3.5l-1.7-4.8L193.8,125.1z M194.6,118.1h1.7l4,10.9h-1.7l-0.9-2.3h-4.6
						l-0.8,2.3h-1.7L194.6,118.1L194.6,118.1z"/>
				</g>
				<g>
					<polyline id="Fill-13" class="st0" points="203.5,118 205.2,118 205.2,127.4 209.6,127.4 209.6,129 203.5,129 203.5,118 					
						"/>
				</g>
				<g>
					<path id="Fill-14" class="st0" d="M228.8,123.5c0-2.2-1.8-4-4-4s-4,1.8-4,4s1.8,4,4,4S228.8,125.7,228.8,123.5z M219.2,123.5
						c0-3.1,2.5-5.6,5.6-5.6s5.6,2.5,5.6,5.6c0,3.1-2.5,5.6-5.6,5.6c0,0,0,0,0,0C221.7,129.1,219.2,126.6,219.2,123.5z"/>
				</g>
				<g>
					<path id="Fill-15" class="st0" d="M234,125.4V118h1.6v7.5c0,1.1,0.9,2.1,2.1,2.1c0,0,0,0,0,0c1.2,0,2.1-0.9,2.1-2.1
						c0,0,0,0,0,0V118h1.6v7.4c-0.1,2.1-1.9,3.6-3.9,3.5C235.6,128.8,234.1,127.3,234,125.4"/>
				</g>
				<g>
					<polyline id="Fill-16" class="st0" points="247.7,119.6 244.7,119.6 244.7,118 252.3,118 252.3,119.6 249.3,119.6 249.3,129 
						247.7,129 247.7,119.6 					"/>
				</g>
				<g>
					<polyline id="Fill-17" class="st0" points="255.6,118 261.8,118 261.8,119.6 257.2,119.6 257.2,122.7 261.8,122.7 261.8,124.2 
						257.2,124.2 257.2,129 255.6,129 255.6,118 					"/>
				</g>
				<g>
					<polygon id="Fill-18" class="st0" points="265.4,129 267.1,129 267.1,118 265.4,118 					"/>
				</g>
				<g>
					<polyline id="Fill-19" class="st0" points="273.4,119.6 270.4,119.6 270.4,118 278,118 278,119.6 275,119.6 275,129 273.4,129 
						273.4,119.6 					"/>
				</g>
				<g>
					<polyline id="Fill-20" class="st0" points="284.2,119.6 281.1,119.6 281.1,118 288.8,118 288.8,119.6 285.8,119.6 285.8,129 
						284.2,129 284.2,119.6 					"/>
				</g>
				<g>
					<polyline id="Fill-21" class="st0" points="292,118 298.6,118 298.6,119.6 293.7,119.6 293.7,122.7 298.6,122.7 298.6,124.2 
						293.7,124.2 293.7,127.4 298.6,127.4 298.6,129 292,129 292,118 					"/>
				</g>
				<g>
					<path id="Fill-22" class="st0" d="M302.5,118h3.4c2-0.1,3.7,1.3,3.8,3.3c0,0.1,0,0.2,0,0.3c0,1.5-0.9,2.9-2.4,3.3l2.6,4.1h-1.9
						l-3.3-5.2h0.9c1.2,0.1,2.3-0.8,2.4-2c0,0,0-0.1,0-0.1c0-1.2-0.8-2.1-2.4-2.1h-1.6v9.4h-1.6L302.5,118"/>
				</g>
				<g>
					<path id="Fill-23" class="st0" d="M286.7,47.8h-6.2V26.5h6.7c6.8,0,9.6,4.7,9.6,10.8C296.8,45,293.7,47.8,286.7,47.8z
						 M288.3,25.7h-18.8v0.7h3.9v43.3h-3.9v0.7h17v-0.7h-6V48.5h7.9c10.7,0,16-4.3,16-11.1S298.7,25.7,288.3,25.7L288.3,25.7z"/>
				</g>
				<g>
					<path id="Fill-24" class="st0" d="M332,70.8c-7.3,0-10.7-5.8-10.7-22.7s3.5-22.7,10.7-22.7s10.7,5.8,10.7,22.7
						S339.2,70.8,332,70.8z M332,24.7c-9.9,0-18.8,9.2-18.8,23.4s8.9,23.4,18.8,23.4s18.8-9.2,18.8-23.4S341.9,24.7,332,24.7z"/>
				</g>
				<g>
					<path id="Fill-25" class="st0" d="M392.7,52.5h-1.4c-3.9,15.8-5.2,17.3-9.5,17.3h-9.7V26.5h6.5v-0.7h-17.5v0.7h3.9v43.3h-3.9
						v0.7h31.6L392.7,52.5"/>
				</g>
				<g>
					<path id="Fill-26" class="st0" d="M411.8,48.1c0-17,3.5-22.7,10.7-22.7s10.7,5.8,10.7,22.7s-3.5,22.7-10.7,22.7
						S411.8,65.1,411.8,48.1z M441.3,48.1c0-14.2-9-23.4-18.8-23.4s-18.8,9.2-18.8,23.4s9,23.4,18.8,23.4S441.3,62.3,441.3,48.1z"/>
				</g>
				<g>
					<path id="Fill-27" class="st0" d="M275.5,85v-5.1h1.6c1.3-0.2,2.4,0.7,2.6,2c0,0.1,0,0.3,0,0.4c0,1.7-1,2.6-3.1,2.6L275.5,85z
						 M277.8,85.3c2.6-0.2,3.9-1.3,3.9-2.9c0-1.4-1-2.8-4-2.8h-5.2v0.4h1.1v10.8h-1.1v0.4h4.3v-0.4h-1.4v-5.5h0.1l4.5,5.9h2.8v-0.4
						H282L277.8,85.3L277.8,85.3z"/>
				</g>
				<g>
					<path id="Fill-28" class="st0" d="M289.6,86.1l1.8-4.9l0,0l1.7,4.9H289.6z M292.7,79.4h-1.1l-4.1,11.3h-1v0.4h3.2v-0.4h-1.8
						l1.5-4.3h3.8l1.5,4.3h-1.3v0.4h4v-0.4h-0.7L292.7,79.4L292.7,79.4z"/>
				</g>
				<g>
					<path id="Fill-29" class="st0" d="M307.6,90.8h-2.6V79.9h1.8v-0.4H302v0.4h1v10.8h-1v0.4h8.6v-4.7h-0.4
						C309.1,90.6,308.8,90.8,307.6,90.8"/>
				</g>
				<g>
					<path id="Fill-30" class="st0" d="M320.8,85.1h-1.7v-5.2h1.9c1.3-0.1,2.5,0.8,2.6,2.1c0,0.2,0,0.4,0,0.6
						C323.6,84.6,322.7,85.1,320.8,85.1z M321.3,79.6h-5.1v0.4h1.1v10.8h-1.1v0.4h4.6v-0.4h-1.6v-5.3h2.1c2.9,0,4.3-1.2,4.3-2.9
						S324.1,79.6,321.3,79.6L321.3,79.6z"/>
				</g>
				<g>
					<polyline id="Fill-31" class="st0" points="336.9,79.9 338.1,79.9 338.1,84.9 333.4,84.9 333.4,79.9 334.6,79.9 334.6,79.6 
						330.4,79.6 330.4,79.9 331.5,79.9 331.5,90.8 330.4,90.8 330.4,91.1 334.6,91.1 334.6,90.8 333.4,90.8 333.4,85.3 338.1,85.3 
						338.1,90.8 336.9,90.8 336.9,91.1 341.1,91.1 341.1,90.8 340,90.8 340,79.9 341.1,79.9 341.1,79.6 336.9,79.6 336.9,79.9 					
						"/>
				</g>
				<g>
					<path id="Fill-32" class="st0" d="M362.9,90.8h-2.6V79.9h1.8v-0.4h-4.8v0.4h1.1v10.8h-1.1v0.4h8.6v-4.7h-0.4
						C364.4,90.6,364,90.8,362.9,90.8"/>
				</g>
				<g>
					<path id="Fill-33" class="st0" d="M373.3,86.1l1.8-4.9l0,0l1.7,4.9H373.3z M376.4,79.4h-1.1l-4.1,11.3h-1v0.4h3.2v-0.4h-1.7
						l1.5-4.3h3.8l1.5,4.3h-1.4v0.4h4v-0.4h-0.7L376.4,79.4L376.4,79.4z"/>
				</g>
				<g>
					<path id="Fill-34" class="st0" d="M392.1,79.9h1.6v8.3c0.1,1.5-1.1,2.7-2.5,2.8c-0.1,0-0.2,0-0.3,0c-1.1,0-2.4-0.7-2.4-2.7
						v-8.4h1.3v-0.4h-4.3v0.4h1.1v8c0,2.3,1.3,3.4,4.2,3.4c2.1,0,3.5-1.2,3.5-3.2v-8.3h1.1v-0.4h-3.2V79.9"/>
				</g>
				<g>
					<path id="Fill-35" class="st0" d="M403.2,85v-5.1h1.6c1.3-0.2,2.4,0.7,2.6,2c0,0.1,0,0.3,0,0.4c0,1.7-1,2.6-3.2,2.6L403.2,85z
						 M405.6,85.3c2.6-0.2,3.9-1.3,3.9-2.9c0-1.4-1-2.8-4-2.8h-5.2v0.4h1.1v10.8h-1.1v0.4h4.3v-0.4h-1.4v-5.5h0.1l4.5,5.9h2.8v-0.4
						h-0.9L405.6,85.3L405.6,85.3z"/>
				</g>
				<g>
					<path id="Fill-36" class="st0" d="M420.9,90.8h-3.1v-5.5h1.4c0.9,0,1.3,0.5,1.7,2.3h0.4v-5h-0.4c-0.4,1.8-0.8,2.3-1.7,2.3h-1.4
						v-5h3.5c0.9,0,1.2,0.2,2.1,3.4h0.4v-3.7h-9v0.4h1.1v10.8h-1.1v0.4h9.2v-4.3h-0.4C422.6,90.3,422.2,90.8,420.9,90.8"/>
				</g>
				<g>
					<polyline id="Fill-37" class="st0" points="436.6,79.9 438.1,79.9 438.1,87.9 438,87.9 432.8,79.6 429.4,79.6 429.4,79.9 
						430.5,79.9 430.5,90.8 429.4,90.8 429.4,91.1 432.5,91.1 432.5,90.8 431,90.8 431,80.3 431.1,80.3 438,91.1 438.5,91.1 
						438.5,79.9 439.7,79.9 439.7,79.6 436.6,79.6 436.6,79.9 					"/>
				</g>
				<g>
					<path id="Fill-38" class="st0" d="M247.3,53.5c0-0.4,0-0.7-0.1-1l-0.4-1.4c-0.1-0.5-0.4-1-0.9-1.3h-0.1c-0.1,0-0.1,0-0.1,0
						c0,0.1,0,0.1,0.1,0.2c0.2,0.3,0.3,0.6,0.4,1l0.1,0.9c0,0.3,0.1,0.5,0.1,0.6V53l0.1,0.4c0,0,0,0.1,0,0.1
						c-0.1,0.3-0.2,0.6-0.4,0.9l0.2,0.3l0.6-0.4C247.1,54.1,247.3,53.8,247.3,53.5"/>
				</g>
				<g>
					<path id="Fill-39" class="st0" d="M225.7,32.3c0.2,0,0.3,0,0.3-0.2c0-0.2-0.1-0.3-0.3-0.3c0,0,0,0,0,0c-0.1,0-0.2,0-0.3,0
						c0,0-0.1,0.1-0.1,0.1v0C225.3,32.2,225.3,32.3,225.7,32.3"/>
				</g>
				<g>
					<path id="Fill-40" class="st0" d="M241.1,58.1c0.3,0.4,0.7,0.8,1.1,1.1c0,0,0.1,0.1,0.2,0c0.2,0,0.4-0.1,0.4-0.2
						s-0.1-0.5-0.8-0.9c-0.5-0.4-0.8-1-0.9-1.6c-0.1-0.6-0.4-1-0.6-1.1s-0.2,0-0.2,0.2c0,0.1,0,0.2,0.1,0.3l0.2,0.5
						c-0.1,0-0.1,0.1-0.1,0.3c0,0.2,0.1,0.3,0.2,0.4c0.1,0.1,0.2,0.1,0.2,0.2l-0.1,0.2C240.7,57.5,240.9,57.8,241.1,58.1"/>
				</g>
				<g>
					<path id="Fill-41" class="st0" d="M229.4,34.5c0.1,0,0.2,0.1,0.2,0.1c0.4,0,0.7-0.5,0.8-1.2c0-0.2,0-0.3-0.2-0.4
						c-0.2,0-0.4,0.1-0.5,0.2l-0.4,0.5c-0.2,0.2-0.2,0.3-0.2,0.3c0,0,0,0.1,0,0.1C229.2,34.3,229.3,34.4,229.4,34.5"/>
				</g>
				<g>
					<path id="Fill-42" class="st0" d="M233.4,85c-0.1,0-0.2,0-0.4,0.2l-0.1,0.1l-0.3,0.3c-0.1,0.2-0.2,0.3-0.3,0.5
						c-0.1,0.1-0.2,0.3-0.2,0.4c0,0.2,0.1,0.4,0.6,0.6c0.2,0.1,0.5,0.2,0.7,0.2c0.4,0,0.5-0.2,0.6-0.8S233.8,85,233.4,85"/>
				</g>
				<g>
					<path id="Fill-43" class="st0" d="M232.2,85.9l0.1-0.3l0.6-1c0-0.1,0.1-0.1,0.1-0.2c0-0.2-0.2-0.4-0.4-0.4
						c-0.2,0-0.4,0.1-0.6,0.2c-0.2,0.2-0.2,0.3-0.4,0.2c-0.2,0-0.3-0.1-0.4-0.2l-0.2-0.4l-0.4-0.3c-0.1-0.1-0.1-0.2-0.1-0.3
						c0-0.2,0-0.3-0.1-0.5c-0.1-0.1-0.2-0.3-0.4-0.4c-0.2-0.1-0.3-0.3-0.3-0.6l-0.1-0.3l-0.1-0.6l-0.3-1.8v-0.3l-0.3-0.3l-0.4-0.1
						l-0.5-0.3h-0.3c0,0,0,0.2,0,0.4l0.1,0.5v0.3l0.3,1.1l0.1,1c0.2,0.7,0.3,1.3,0.2,2c-0.1,0.7,0,1.1,0.3,1.1c0.1,0,0.2,0,0.3,0
						l0.5-0.1l0,0c0.2,0.1,0.3,0.2,0.3,0.4v0.5l0.5,0.4l0.6,0.4c0.1,0.1,0.3,0.1,0.4,0.1c0.3,0,0.5-0.1,0.6-0.3"/>
				</g>
				<g>
					<path id="Fill-44" class="st0" d="M225.7,43.6l0.2-0.4c0.1-0.2,0.1-0.4,0.2-0.5c0-0.5,0-0.9-0.1-1.4c-0.1-0.5-0.4-0.9-0.7-1.3
						c-0.1-0.2-0.3-0.3-0.5-0.4h-0.1l-0.3,0.5l-0.6,0.6l-0.5,0.7l-0.5,0.3c-0.2,0.2-0.3,0.4-0.2,0.6c0,0.2-0.1,0.4-0.2,0.6
						c-0.1,0.2-0.2,0.4-0.2,0.6c0,0.2,0.1,0.3,0.3,0.3c0.1,0,0.1,0,0.2,0c0.1,0,0.2-0.3,0.3-0.4c0.1-0.1,0.3-0.2,0.5-0.2
						c0.2,0,0.4-0.3,0.4-0.3c0.1-0.1,0.1-0.1,0.2-0.1c0.1,0,0.1,0.1,0.1,0.1c-0.1,0.7-0.3,1.2-0.6,1.1l0,0l-0.3-0.2
						c-0.1,0-0.2,0.1-0.2,0.2c0,0.2,0.1,0.4,0.4,0.6c0.1,0.1,0.2,0.1,0.4,0.1c0.2,0,0.3-0.1,0.4-0.3l0.5-0.9c0-0.1,0.2-0.2,0.3-0.2
						c0.1,0,0.1,0.1,0.1,0.2c0,0.1-0.1,0.3-0.1,0.4l-0.6,1c0,0.1,0.1,0.2,0.1,0.3c0.2-0.1,0.3-0.3,0.4-0.4l0.8-0.8L225.7,43.6"/>
				</g>
				<g>
					<path id="Fill-45" class="st0" d="M225.9,31.5c0.1,0,0.1,0,0.1-0.2c0,0,0,0,0-0.1c0-0.2-0.2-0.4-0.5-0.5c-0.1,0-0.1,0-0.1,0.1
						c0,0,0,0,0,0C225.4,31.3,225.6,31.5,225.9,31.5"/>
				</g>
				<g>
					<path id="Fill-46" class="st0" d="M252.1,52.3c0.1,0.1,0.3,0.2,0.5,0.3c0.3,0,0.5,0,0.5-0.2c0,0,0-0.1,0-0.1
						c-0.1-0.4-0.4-0.6-0.8-0.7c-0.2,0-0.4,0.1-0.5,0.3c0,0,0,0,0,0c0,0,0,0.1,0,0.1L252.1,52.3"/>
				</g>
				<g>
					<path id="Fill-47" class="st0" d="M253.1,51.8l0.2,0.3c0.1,0.1,0.2,0.2,0.3,0.2c0.2,0,0.3,0,0.3-0.1c0-0.1,0-0.2-0.1-0.3
						l-0.2-0.5l-0.1-0.4c0-0.1-0.1-0.1-0.3-0.2c-0.2,0-0.4,0.1-0.4,0.3c0,0.1,0,0.2,0.1,0.3L253.1,51.8"/>
				</g>
				<g>
					<path id="Fill-48" class="st0" d="M233.7,24.7c0.2,0,0.4-0.2,0.7-0.5l0.6-0.5c0,0,9.3-7.4,13.1-11.6l0.2-0.1h0.2l0.1-0.1h0.1
						c0.1,0,0.2,0.2,0.4,0.5c0.2,0.3,0.4,0.7,0.6,1c0.4,0.6,0.6,0.4,0.7,0.4c0.1,0,0.2-0.1,0.3-0.2c0.1-0.1,0.1-0.1,0.1-0.1
						c0.2-0.2,0-0.3-0.1-0.6l-0.1-0.2l-2.2-4.3c-0.2-0.5-0.3-0.3-0.3-0.3l-0.3,0.1c-0.3,0.1-0.6,0.2-0.5,0.6
						c0.1,0.1,0.1,0.3,0.2,0.6l0.7,1.4c0.1,0.2,0,0.2-0.1,0.3l0,0c-0.1,0.2-0.2,0.3-0.3,0.4l0,0c-4.8,4.9-7.3,6.8-14.1,12.3
						l-0.2,0.2c-0.1,0.1-0.2,0.1-0.2,0.3v0.1c0,0.1,0,0.2,0.1,0.3C233.5,24.6,233.6,24.6,233.7,24.7"/>
				</g>
				<g>
					<path id="Fill-49" class="st0" d="M246.1,56.7c0.1,0,0.2-0.1,0.2-0.2v-0.1l-0.1-0.6c0-0.2,0-0.2-0.1-0.2
						c-0.1,0-0.3,0.1-0.3,0.2c0,0,0,0,0,0c0,0.2,0.1,0.4,0.1,0.6C245.9,56.6,246,56.7,246.1,56.7"/>
				</g>
				<g>
					<path id="Fill-50" class="st0" d="M246.2,57.9c0.1,0,0.2-0.1,0.2-0.1c0.1-0.1,0.1-0.1,0.1-0.2l0,0c0-0.2,0-0.3-0.1-0.4
						c-0.1-0.1-0.2-0.2-0.2-0.2s-0.2,0.1-0.2,0.3c0,0.2,0,0.3,0.1,0.5L246.2,57.9"/>
				</g>
				<g>
					<path id="Fill-51" class="st0" d="M244.9,54.9l-0.2-0.6c-0.1-0.2-0.2-0.4-0.4-0.4c-0.2,0-0.3,0.1-0.3,0.5
						c-0.1,0.2-0.1,0.4,0,0.7l0.2,0.2l0.3,0.3l0.2,0.5l0.3,0.6l0.3,1.3c0,0.1,0.1,0.1,0.1,0.1c0.1,0,0.3-0.3,0.3-0.7
						c0.1-0.8-0.1-1.5-0.6-2.1C245.1,55.1,245,55,244.9,54.9"/>
				</g>
				<g>
					<path id="Fill-52" class="st0" d="M246,53.2c0-0.5,0-1-0.1-1.5l-0.4-0.7l-0.1-0.5l-0.3-0.4l-0.2-0.5c0,0,0,0-0.1-0.1
						s-0.2,0-0.2,0.1c0,0.1,0,0.2,0.1,0.4l0.1,0.5c0,0.1,0,0.2,0.1,0.2l-0.3,0.5l-0.1,1.3l-0.2,0.5c0,0.1,0.1,0.2,0.2,0.3
						c0.2,0.2,0.4,0.5,0.5,0.8l0.4-0.1c0.2-0.2,0.4-0.4,0.5-0.7C246,53.3,246,53.3,246,53.2"/>
				</g>
				<g>
					<path id="Fill-53" class="st0" d="M239.7,33.6h-0.2l-0.4,0.2l-0.8,0.5l-1.4,0.9l-0.1,0.2l-0.1,0.1l-0.1,0.1
						c0.3,1,0.6,1.3,0.9,1.4c0,0,0.1,0,0.1,0l0.5-0.2l0.7-0.1l1.1-0.6l0.9-0.6l0.3-0.3l1.1-0.4c0.3-0.1,0.5-0.4,0.5-0.7
						c0-0.6-0.1-1.2-0.3-1.7c-0.1-0.4-0.4-0.6-0.6-0.6c-0.1,0-0.1,0-0.2,0l-0.3,0.2l-0.8,0.3c-0.3,0.1-0.6,0.4-0.7,0.7
						c0,0,0,0.1,0,0.1l0.2,0.2c0,0,0,0,0,0.1C239.9,33.4,239.8,33.5,239.7,33.6"/>
				</g>
				<g>
					<path id="Fill-54" class="st0" d="M244.8,79.7c-0.2-0.4-0.3-0.5-0.5-0.5c-0.1,0-0.1,0-0.2,0.1l-0.2,0.3l-0.1,0.1l0.1,0.2
						c-0.1,0,0,0.2,0.1,0.3l0.2,0.3l0.1,0.6c0,0.1,0.1,0.2,0.3,0.2s0.5-0.2,0.6-0.6c0-0.1,0-0.2-0.1-0.3L244.8,79.7"/>
				</g>
				<g>
					<path id="Fill-55" class="st0" d="M240.4,75.3l-0.3,0.3h-0.3l-0.4,0.1c-0.1,0-0.2-0.1-0.1-0.2c0,0,0,0,0,0
						c0-0.2,0.1-0.3,0.2-0.3h0.3l0.2-0.3l0.2-0.9c0-0.1,0.1-0.1,0.1-0.1c0,0,0,0,0,0c0.1,0,0.2,0,0.1,0.2l-0.1,0.5l0,0L240.4,75.3z
						 M242.1,66.4c0-0.1,0-0.2,0-0.3c0-0.2,0-0.4-0.1-0.5l-0.3-0.5c0-0.1-0.1-0.2-0.1-0.2c0,0,0-0.1,0.1-0.1l0.1-0.1
						c0.5-0.3,0.9-0.8,1.2-1.3c0.2-0.3,0.3-0.5,0.3-0.5c0-0.1,0.1-0.1,0.2-0.1c0.1,0,0.2,0.1,0.2,0.2V63l-0.1,0.3l-0.4,0.4
						c-0.1,0.1-0.1,0.2-0.1,0.5c0,0.2,0,0.3-0.1,0.3l-0.4,0.1c-0.1,0-0.2,0.1-0.2,0.2c0,0.1,0,0.1,0,0.2l0.3,0.6l0.4,1v0.1l0.1,0.4
						l-0.2,0.6v0.3c0,0.5-0.1,0.9-0.4,1.3c-0.2,0.2-0.4,0.4-0.4,0.5V70l-0.3,0.4l-0.2,0.4l-0.1-0.1c0,0,0-0.2,0-0.3l0.2-0.4
						c0-0.1,0-0.2,0-0.3c0-0.3,0-0.6,0.1-0.8l0.2-0.5l0.1-1.2l0.1-0.5l-0.1-0.2L242.1,66.4z M239,64.9l-0.5,0.6
						c-0.1,0.1-0.4,0.1-0.7,0.3c-0.1,0.1-0.2,0.3-0.2,0.4v0.4l0.1,1c0,0,0,0.1,0,0.1c0,0.1-0.1,0.2-0.1,0.2
						c-0.2-0.1-0.4-0.2-0.5-0.3l-1.1-0.9l0,0l-0.4-0.5l-0.6-0.9v-0.6c0-0.3-0.1-0.5-0.2-0.8c-0.1-0.3-0.2-0.6-0.3-0.9
						c0-0.1,0-0.1,0.1-0.1c0.1,0,0.2,0.1,0.2,0.1c0.1,0.1,0.2,0.1,0.2,0.2c0.1,0.1,0.1,0.3,0.1,0.4c0,0.3,0.1,0.6,0.2,0.9l0.3,0.5
						l0.1,0.4l0.4,0.6l0.6,0.6l0.2,0.2l0.1-0.2c0,0,0-0.1,0-0.1c0-0.1-0.1-0.2-0.1-0.4c0-0.1,0-0.1,0-0.2c0-0.3,0.2-0.6,0.5-0.7
						l0.7-0.3c0.4-0.1,0.7-0.4,0.7-0.8v-0.5c0,0,0.1-0.2,0.3-0.3c0.1-0.1,0.2-0.3,0.2-0.4l-0.1-0.7c0-0.1,0-0.2,0-0.2
						c0-0.4,0.3-0.8,0.6-1.1l0.2-0.2c0,0,0.1,0.1,0.1,0.2c0,0.1,0,0.2,0,0.3c0,0.1,0,0.2-0.1,0.3l-0.3,0.7c-0.1,0.4-0.2,0.8-0.2,1.2
						c0,0.2,0,0.4-0.1,0.6l0,0C239.6,64.7,239.4,64.9,239,64.9z M234.3,56.8c-0.2,0.2-0.3,0.3-0.6,1c-0.2,0.4-0.4,0.6-0.6,0.6
						c-0.1,0-0.1,0-0.2-0.1l0,0c0-0.1,0-0.1,0-0.2c0-0.1,0.1-0.2,0.1-0.3l0.5-0.5l0.2-0.4l0.2-0.1l0.1-0.5l0.2-0.3l0.8-0.5
						c0.1-0.1,0.3-0.3,0.4-0.4c0.2-0.4,0.6-0.7,1-0.9c0.3-0.2,0.5-0.3,0.6-0.5l0.1-0.4c0.1-0.1,0.2-0.3,0.3-0.4
						c0.2-0.2,0.3-0.4,0.4-0.6c0.4-0.8,0.4-1,0.5-1s0.1,0.2,0.1,0.4c0,0.2,0,0.3-0.1,0.5c0,0.2-0.1,0.3-0.2,0.5l-0.3,0.4l-0.5,0.9
						l-0.7,0.6l-1,0.5c-0.1,0.1-0.2,0.2-0.3,0.4l-0.3,0.7L234.3,56.8z M232.8,61.9c-0.1,0-0.3-0.1-0.3-0.2c0-0.1-0.1-0.2-0.1-0.3
						c0-0.1,0-0.2,0.1-0.2h0.1c0.1,0,0.2,0,0.2,0.1c0.1,0.1,0.2,0.3,0.2,0.5C233.1,61.8,233,61.9,232.8,61.9
						C232.8,61.9,232.8,61.9,232.8,61.9L232.8,61.9z M231.8,41.2l-0.3,0.6l-0.4,0.7c-0.1,0.2-0.3,0.4-0.6,0.4c-0.1,0-0.1,0-0.1-0.1
						l0,0c0,0,0-0.1,0-0.1c0-0.1,0.1-0.3,0.2-0.4c0.2-0.3,0.4-0.6,0.6-0.9l0.4-1l0.4-0.7l0.1-0.5c0,0,0.1-0.1,0.2-0.1s0.1,0,0.1,0.1
						c0,0,0,0.1,0,0.2C232.3,40,232.1,40.6,231.8,41.2L231.8,41.2z M231.7,54.8c0,0,0,0.1-0.1,0.2l-0.2,0.6V55c0-0.1,0-0.2-0.1-0.3
						c-0.1-0.1-0.2-0.2-0.3-0.3c-0.2-0.2-0.3-0.5-0.3-0.8c0-0.2,0.1-0.3,0.2-0.3s0.5,0.5,0.8,1.2C231.7,54.5,231.7,54.6,231.7,54.8
						L231.7,54.8z M229.5,43.7c-0.1,0-0.2,0-0.3,0c0,0-0.1,0-0.1,0l0,0c0,0,0,0,0-0.1c0-0.1,0.7-1,0.9-0.5l0,0v0.1c0,0,0,0,0,0.1
						C230,43.5,229.8,43.7,229.5,43.7L229.5,43.7z M228.4,42.9C228.4,42.8,228.4,42.8,228.4,42.9c0-0.2,0.1-0.3,0.2-0.4l0.4-0.4
						c0.2-0.2,0.2-0.3,0.3-0.3c0,0,0.1,0,0.1,0h0.1l0,0c0,0,0.1,0.1,0.1,0.1c-0.1,0.2-0.2,0.4-0.3,0.6c-0.2,0.3-0.5,0.5-0.7,0.5
						C228.5,42.9,228.4,42.9,228.4,42.9L228.4,42.9z M228.3,41.7c0-0.1,0.1-0.2,0.1-0.3l0.4-0.4c0.1-0.2,0.3-0.3,0.5-0.4
						c0.1-0.1,0.2-0.2,0.3-0.1s0.1,0.1,0,0.1l-0.7,1l-0.5,0.3l0,0c0,0-0.1,0-0.1,0C228.3,41.9,228.3,41.8,228.3,41.7L228.3,41.7z
						 M227.7,40.9c0-0.1,0-0.1-0.1-0.2l0,0v-0.1l0.2-0.6c0.1-0.3,0.3-0.4,0.5-0.4c0.1,0,0.1,0,0.2,0.1l0,0c0.1,0,0.2,0.1,0.2,0.2
						c0,0.1,0.1,0.1,0.1,0.2c-0.1,0-0.2,0.1-0.4,0.1c-0.1,0-0.3,0.1-0.3,0.3L227.7,40.9z M228.2,35c0.1,0,0.1,0,0.2,0l1.6,0.8
						l0.6,0.4l0,0c0,0.1-0.1,0.1-0.1,0.1c0,0,0,0,0,0c-0.1,0-0.3-0.1-0.4-0.2c-0.2-0.1-0.4-0.3-0.6-0.3l-1.2-0.4
						c-0.1,0-0.3-0.2-0.3-0.3c0,0,0-0.1,0-0.1C228,34.9,228.1,35,228.2,35L228.2,35z M228.5,33.7l-0.9-0.8c-0.5-0.5-0.8-1.1-0.7-1.8
						c0.1-0.9,0.8-1.6,1.4-1.6c0.1,0,0.1,0,0.2,0l0.1-0.1c0,0,0.1-0.1,0.1,0c0,0,0.1,0,0.1,0.1c0,0.1-0.1,0.2-0.1,0.2
						c0.1,0,0.3,0,0.4,0c0.1-0.1,0.2-0.1,0.3-0.1c0.1,0,0.1,0.1,0.1,0.1l0.1,0.3c0,0.1,0.2,0.2,0.4,0.2c0.2,0,0.3,0.1,0.4,0.2
						l0.2,0.5c0.1,0.1,0.2,0.2,0.3,0.3c0.4,0,0.7-0.2,0.9-0.5l0.3-0.5c0.1-0.1,0.2-0.2,0.3-0.2c0.1,0,0.1,0,0.1,0.1
						c0,0.1-0.1,0.2-0.1,0.2c-0.1,0.2-0.1,0.3-0.1,0.5v0.4c0.1,0.4,0.4,0.7,0.7,1c0.2,0.2,0.3,0.5,0.4,0.9c0,0.2,0,0.2,0.1,0.2
						c0.1,0,0.2-0.1,0.2-0.2l0.1-0.5l0.3-0.3l-0.1-0.1c0,0,0-0.1,0-0.1c0-0.1,0.1-0.1,0.1-0.1h0.2h0.1c0.1,0,0.3,0,0.4-0.1
						c0.5-0.2,0.8-0.5,0.8-0.9c0-0.2,0-0.3,0-0.5c0,0-0.1-0.7,0.1-0.8h0.2c0.3,0.1,0.3,1.1,0.2,1.5c-0.1,0.7-0.4,1.1-0.7,1.1
						c-0.1,0-0.1,0-0.2-0.1l-0.3-0.1c-0.3,0-0.4,0.2-0.5,1.2c-0.1,0.6-0.3,0.8-0.6,0.8h-0.2c-0.1,0-0.3-0.1-0.4-0.2l-0.3-0.4h-0.1
						c-0.2,0-0.5,0.3-0.6,0.8c0,0.1,0,0.1,0,0.2c0,0.1,0,0.1,0,0.2l0,0c0,0-0.1-0.1-0.1-0.2l0,0l-0.1-0.2c-0.1-0.2-0.1-0.3-0.2-0.3
						c-0.3,0-0.5,0.2-0.7,0.4l-0.5,0.6c-0.1,0.1-0.3,0.2-0.4,0.2c-0.1,0-0.4-0.1-1.2-0.8l0,0c-0.1-0.1-0.8-0.5-0.8-0.7l0,0
						L228.5,33.7z M230.5,28c0-0.1,0-0.2,0.1-0.2c0-0.1,0.1-0.1,0.2-0.1c0.2,0,0.2,0.3,0.2,0.7c0,0,0,0.1-0.1,0.1h-0.3l-0.3,0.1
						v-0.2C230.4,28.2,230.4,28.1,230.5,28L230.5,28z M231.6,25.5l0.2-0.2c0,0,0,0,0.1,0c0.1,0,0.1,0.1,0.2,0.1c0,0,0,0.1,0,0.1
						c0,0.1-0.1,0.2-0.2,0.2s-0.5,0.3-0.6,0.1S231.6,25.5,231.6,25.5L231.6,25.5z M234.7,30L234.7,30c0.6,0,0.3,0.6,0.1,0.8l-0.1,0
						C234.4,30.4,234.5,30,234.7,30z M235,28.9c0.1,0,0.1,0.1,0.1,0.2c-0.1,0.5-0.3,0.5-0.3,0.5s-0.1-0.1-0.1-0.2c0-0.1,0-0.1,0-0.2
						c0-0.1,0-0.2,0.1-0.2L235,28.9L235,28.9C234.9,28.9,235,28.9,235,28.9L235,28.9z M234,36.3c0,0.2-0.2,0.4-0.5,0.4
						c-0.1,0-0.2-0.2-0.1-0.5l0,0c0.1-0.2,0.2-0.3,0.4-0.3c0,0,0.1,0,0.1,0.1C234,36.1,234,36.2,234,36.3L234,36.3z M231.4,36
						c0,0.1,0,0.2-0.2,0.2c-0.1,0-0.2-0.1-0.2-0.2c0-0.1,0.1-0.2,0.2-0.2C231.3,35.8,231.4,35.9,231.4,36L231.4,36z M230.3,39
						c0.1,0.1,0.1,0.1,0.1,0.2c0,0.1-0.1,0.2-0.1,0.3c-0.1,0.2-0.3,0.3-0.4,0.3c0,0-0.2-0.1,0-0.3l0.2-0.3
						C230.1,39.1,230.2,39,230.3,39L230.3,39z M231.1,37.9c0,0.1,0,0.1-0.1,0.2c-0.2,0.2-0.2,0.4-0.4,0.3s0-0.1-0.1-0.1
						c0,0,0,0,0-0.1c0,0,0-0.1,0-0.1c0.1-0.2,0.2-0.4,0.4-0.5c0,0,0.1,0,0.1,0C231.1,37.7,231.2,37.8,231.1,37.9L231.1,37.9z
						 M231.3,36.7c0.1,0,0.1,0,0.2,0c0.1,0,0.2,0.1,0.2,0.3l0,0c0,0.1-0.1,0.3-0.3,0.3h-0.1l0,0l-0.1,0c-0.1,0-0.1-0.1-0.1-0.2
						C231.2,36.9,231.2,36.8,231.3,36.7L231.3,36.7z M228.5,38.5l-0.1-0.2c0-0.1-0.1-0.1-0.1-0.2l0,0c0-0.1,0.1-0.2,0.2-0.3
						c0.1-0.1,0.2-0.2,0.4-0.2c0.1,0,0.2,0,0.3,0c0.2,0.1,0.4,0.1,0.6,0.1l-0.1,0.3v0.5c-0.1,0.3-0.4,0.5-0.7,0.4c0,0-0.1,0-0.1-0.1
						l0,0L228.5,38.5z M231.3,39.4l-0.1,0.1l-0.5,0.7l-0.5,0.8c-0.1,0.2-0.3,0.3-0.5,0.3c0,0-0.1,0-0.1-0.1c0-0.1,0.1-0.1,0.1-0.2
						c0.2-0.3,0.4-0.5,0.6-0.8c0.2-0.4,0.4-0.8,0.6-1.1c0.1-0.2,0.2-0.3,0.4-0.2C231.3,39.1,231.5,39.1,231.3,39.4L231.3,39.4z
						 M231.8,38.1l-0.1,0.6c0,0.1-0.1,0.2-0.3,0.2c0,0,0,0,0,0c-0.1,0-0.2-0.2-0.2-0.3c0-0.2,0.1-0.3,0.2-0.5l0.2-0.3L231.8,38.1z
						 M232.4,60.5c-0.1,0-0.2-0.3-0.2-0.6c0-0.1,0.1-0.2,0.2-0.2h0.1l0,0l0.1,0.2c0,0-0.1,0.1-0.1,0.3
						C232.7,60.4,232.6,60.5,232.4,60.5L232.4,60.5z M232.9,58.8c0,0.1-0.1,0.3-0.2,0.4c-0.1,0.1-0.1,0.2-0.2,0.2s-0.2-0.2-0.2-0.4
						c0-0.2,0.1-0.4,0.3-0.5l0,0l-0.1,0.1C232.8,58.6,233,58.9,232.9,58.8L232.9,58.8z M233.2,42.7c0-0.1,0.1-0.2,0.1-0.2
						c0.1,0,0.1,0.1,0.2,0.1c0.1,0.1,0.1,0.2,0.1,0.3c0,0.1,0,0.2,0,0.3c0,0.4-0.1,0.5-0.1,0.4s-0.2-0.1-0.3-0.4L233.2,42.7
						C233.2,42.8,233.2,42.8,233.2,42.7L233.2,42.7z M234.5,46.4c0.1,0,0.3,0.3,0.4,0.7c0.1,0.3,0.1,0.5,0.2,0.7l0,0
						c0.1,0.2,0.2,0.5,0.4,0.7c0.1,0.1,0.1,0.2,0.1,0.3c0,0.1-0.1,0.2-0.2,0.2l0,0c-0.1,0-0.1,0-0.1-0.1l-0.1-0.5l-0.2-0.5
						c-0.1-0.2-0.1-0.3-0.2-0.5c-0.1-0.2-0.1-0.4-0.2-0.6c0-0.1-0.1-0.2-0.1-0.3C234.4,46.4,234.5,46.4,234.5,46.4
						C234.5,46.4,234.5,46.4,234.5,46.4L234.5,46.4z M235.9,49.4c0.1,0,0.1,0,0.2,0.1l0,0c0.1,0,0.1,0.1,0.1,0.1
						c0.4,0.4,0.5,1,0.5,1.6v0.6v0.2c-0.1,0.8-0.2,1.1-0.4,1s-0.2-0.2-0.2-0.6c0-0.1,0-0.2,0.1-0.3l0.2-0.7l-0.1-0.4
						c-0.1-0.4-0.2-0.8-0.5-1.1c-0.1-0.1-0.2-0.2-0.2-0.3c0.1-0.1,0.1-0.1,0.2,0L235.9,49.4z M235.6,62.6c0-0.1,0-0.3,0-0.4
						c0.1-0.7,0.4-1.2,0.7-1.2c0.1,0,0.2,0.2,0.2,0.3c0,0.2-0.1,0.3-0.2,0.4c-0.1,0.1-0.2,0.2-0.2,0.2v0.4c0,0.3-0.1,0.5-0.3,0.5
						c-0.1,0-0.2-0.1-0.2-0.2L235.6,62.6z M237,60.3l-0.2,0.2c0,0-0.1,0-0.1,0c-0.1,0-0.2-0.1-0.2-0.2c0,0,0,0,0,0
						c0-0.2,0.2-0.3,0.3-0.3l0.1,0.1l0,0L237,60.3z M238.9,56v0.1l0,0l-0.1,0.4l0.1,0.3v0.7l-0.1,0.4l-0.2,0.3v0.4l-0.3,0.5
						l-0.3,0.2l-0.2,0.3c-0.1,0.2-0.3,0.3-0.4,0.3l-0.1-0.2l0,0l-0.1-0.2l0.1-0.1l0.4-0.6l0.2-0.4l0.4-0.4l0.1-0.3l0.1-0.4l-0.1-0.2
						l0.2-0.9c0-0.2,0.1-0.3,0.1-0.3S238.9,56,238.9,56z M241,63.1c0-0.3,0.1-0.5,0.3-0.5s0.3,0.3,0.3,0.8c0,0.1,0,0.3-0.1,0.4
						c0,0.2-0.1,0.3-0.2,0.5l-0.1,0.1l0,0l-0.2,0.2l-0.3,0.6c-0.1,0.1-0.2,0.1-0.3,0.1c-0.1,0-0.2-0.1-0.2-0.2c0,0,0-0.1,0-0.2
						l0.3-0.6l0,0l0.2-0.4l0.3-0.5C240.9,63.4,241,63.3,241,63.1L241,63.1z M226.4,33.2l-0.3,0.1c0,0-0.1,0-0.1,0c0,0,0-0.1,0-0.1
						l0.3-0.3h0.2L226.4,33.2z M237.2,39.3c0.2-0.1,0.4-0.2,0.6-0.4c0.1-0.2,0.2-0.3,0.2-0.3c0.1,0,0.2,0,0.3,0h0.1
						c0.5,0.1,1.1,0,1.6-0.2c0.4-0.2,0.6-0.3,0.6-0.3s0.1,0.1,0.1,0.2c0,0,0,0,0,0.1l-0.4,0.7l-0.2,0.3c0,0.1-0.1,0.1-0.2,0.1
						c-0.2,0-0.3-0.1-0.5-0.2c-0.1,0-0.1-0.1-0.2-0.1c-0.3,0-0.6,0-0.9,0c-0.3,0-0.5,0.1-0.8,0.2c-0.1,0.1-0.3,0.2-0.4,0.3l-0.1,0.1
						c0,0-0.1,0-0.1,0c0,0-0.1-0.1-0.1-0.2C236.9,39.5,237,39.4,237.2,39.3L237.2,39.3z M242.9,49.6c0.1-0.2,0.2-0.4,0.3-0.6
						c0.1-0.1,0.1-0.2,0.2-0.2s0.2,0.1,0.2,0.1l-0.1,0.3l0,0l-0.2,0.5c-0.1,0.2-0.2,0.3-0.4,0.3c-0.1,0-0.1,0-0.1-0.1
						C242.8,49.9,242.9,49.7,242.9,49.6L242.9,49.6z M242.9,81.1l-0.1-0.4l-0.5-0.5l-0.5-0.5c-0.1-0.1-0.1-0.1-0.2-0.1
						c-0.1,0-0.2,0-0.3,0.1l-0.3,0.3l-0.1-0.2c-0.1-0.1,0.1-0.4,0.3-0.6s0.3-0.3,0.3-0.4s-0.1-0.3-0.4-0.3h-0.4v-0.4l0.4-0.6
						c0.2-0.4,0.1-0.9-0.1-1.2c-0.1-0.2-0.2-0.4-0.3-0.7l0.1-1l0,0l0.1-1.1l0.4-0.9l0.1-0.7c0.1-0.2,0.2-0.5,0.4-0.7
						c0.2-0.3,0.3-0.5,0.4-0.8c0.3-0.7,0.5-1.2,0.6-1.4c0.4-0.6,0.7-1.3,1-2c0-0.2,0-0.4-0.1-0.6l0,0c0-0.1,0-0.2-0.1-0.3
						c-0.1-0.2-0.2-0.5-0.2-0.7l0.2-0.7v-0.7c0.1-0.3,0.2-0.5,0.4-0.7l0,0l0,0l0,0l0,0c0.1-0.2,0.2-0.4,0.2-0.6c0-0.2,0-0.4-0.1-0.5
						l-0.4-1.2c-0.1-0.3-0.2-0.6-0.3-0.6s-0.4,0.1-0.4,0.2v1.1c0,0.3-0.2,0.5-0.5,0.4c0,0-0.1,0-0.1,0c-0.1,0-0.1,0-0.1,0
						c0.1-0.2,0.2-0.4,0.3-0.5c0-0.1,0.1-0.2,0.1-0.3c0-0.5-0.2-1.1-0.5-1.5l-1-1l-1.3-1.8l-0.3-0.6l0.1-0.2l-0.1-0.5l0,0l-0.1-0.3
						l-0.1-1.2L239,53c0-0.2,0-0.4,0-0.5v-0.2c0.1-0.5,0-0.9-0.3-1.3l0,0c-0.1-0.1-0.2-0.1-0.3-0.2l-1-1l-0.4-0.1
						c-0.2,0-0.5-0.2-0.6-0.3c-0.4-0.5-0.7-1-0.8-1.6l0,0l0,0l0,0l-0.4-1c-0.2-0.5-0.5-0.9-0.2-0.9h0.1c0.4,0.1,0.5,0.2,0.6,0.7
						c0.1,0.3,0.2,0.7,0.3,1c0.1,0.1,0.2,0.3,0.3,0.4v0.4c0,0.1,0,0.2,0.1,0.3c0.2,0.4,0.6,0.7,1,0.8c0.2,0,0.3,0,0.3-0.1
						c0-0.1,0-0.2-0.1-0.2l-0.4-0.5c0-0.1-0.1-0.1-0.1-0.2c0-0.2,0.2-0.4,0.5-0.5l0.2,0V48c0,0.1-0.1,0.2-0.1,0.2
						c-0.1,0.1-0.1,0.1-0.1,0.2c0,0.1,0.1,0.2,0.1,0.3l0.2,0.5c0,0.1,0.1,0.2,0.2,0.2c0.5,0.4,1,0.9,1.4,1.5l0.1,0.5l0.3,0.5
						c0.2,0.5,0.3,1,0.4,1.5c0.1,1.2,0.2,1.6,0.4,1.8l0.6,0.7v0.3l0.4,1l0.4,0.5l0.3,0.6l0.4,0.2l0.2,0.5l0.5,0.2l0.2-0.2l0.3,0
						c0.3,0,0.6-0.4,0.7-0.8c0-0.4,0-0.8-0.2-1.1c-0.1-0.2-0.2-0.3-0.4-0.3c-0.1,0-0.1,0-0.1,0.1c0,0.1,0,0.3,0.1,0.4
						c0,0.1,0.1,0.3,0.1,0.4c0,0.1-0.1,0.1-0.1,0.1s-0.3-0.3-0.4-0.7v-0.8l-0.3,0.1l0,0c-0.1,0-0.1,0-0.1-0.1s0.1-0.2,0.2-0.3
						c0.1-0.1,0.1-0.2,0.1-0.3c0-0.1,0-0.3-0.2-0.3c0,0,0,0,0,0l0,0h-0.3c-0.1,0-0.1-0.1-0.1-0.3c0-0.1,0-0.2,0.1-0.2l0.6-1l0.3-2
						l0.4-1l0.1-0.7c0-0.2,0.1-0.5,0.1-0.8l0,0c0.1-0.2,0.1-0.4,0.1-0.6c0.2-1.2,0.1-1.6-0.4-1.7c-0.1,0-0.1,0-0.1,0L244,48
						c0,0.1-0.1,0.2-0.2,0.2c-0.1,0-0.1-0.2-0.1-0.5c0-0.2,0.1-0.4,0.1-0.5c0.1-0.2,0.2-0.4,0.2-0.7c0-0.4,0-0.6-0.2-0.6
						c-0.1,0-0.2,0.1-0.2,0.2l-0.1,0.2v-0.3l0.1-0.5v-0.1c0-0.2,0-0.4-0.1-0.5c-0.1-0.2-0.3-0.4-0.4-0.4s-0.3,0.2-0.3,0.5
						c0,0.3,0,0.5,0,0.8c0,0,0,0.1,0,0.1c0,0.2-0.2,0.4-0.3,0.4s-0.1,0-0.1-0.1l0.1-1.7c0-0.2-0.2-0.5-0.4-0.5c-0.1,0-0.2,0-0.4,0.1
						c-0.2,0.1-0.4,0.2-0.6,0.3l-0.2,0.4c-0.1,0.1-0.2,0.2-0.4,0.2c-0.1,0-0.2-0.2-0.2-0.4c0-0.2,0.2-0.4,0.4-0.5l1.8-0.6
						c0.1,0,0.1-0.1,0.1-0.2c0-0.2-0.2-0.4-0.4-0.4c-0.6-0.1-0.7-0.1-0.7-0.3c0,0,0-0.1,0.1-0.1l0.2-0.2c0.1-0.1,0.1-0.2,0.1-0.4
						c0.1-0.5-0.1-0.8-0.5-0.9h-0.1l-0.4,0.1l-0.7,0.1l-0.5,0.2l-0.8,0.1l-0.8,0.3h-0.7l-0.3,0.2c-0.1,0.1-0.2,0.3-0.3,0.4
						c0,0.1-0.1,0.3-0.2,0.4c-0.1,0.2-0.4,0.1-0.6,0.4c-0.1,0.2-0.2,0.4-0.2,0.6l-0.1,0.3l-0.2,0.7c-0.1,0.2-0.1,0.3-0.3,0.3
						s-0.4,0-0.4-0.1c0-0.1-0.1-0.2-0.1-0.4c-0.1-0.7-0.2-1.1-0.3-1.5l0,0c-0.1-0.3-0.1-0.6-0.2-0.7l-0.8-2.7h-0.1v1.4v0.2l-0.5-2.2
						l0,0l-0.2-1.1l-0.1-0.4v-0.1l-0.6-1.5l0,0c0-0.1,0-0.2,0-0.3c0-0.2,0.1-0.3,0.2-0.4c0,0,0.1,0.1,0.1,0.1
						c0.2,0.1-0.1,0.5,0.1,0.7l0.2,0.2c0.2,0.3,0.3,0.6,0.4,1c0.1,0.5,0.3,0.8,0.5,0.8l0.7-0.1l0.6-0.1c0.1-0.1,0.2-0.2,0.3-0.3
						c0.2-0.2,0.3-0.4,0.4-0.6c0-0.3-0.1-0.6-0.2-0.8c-0.1-0.2-0.4-0.4-0.6-0.4h-0.3h-0.1l0,0c-0.1,0-0.1-0.1-0.1-0.1
						c0-0.1,0-0.1,0.1-0.1h0.8c0.2,0,0.4-0.1,0.5-0.2c0.1-0.1,0.2-0.2,0.3-0.2s0.2,0.5,0.1,1v0.2v0.2c0,0.2,0,0.4,0,0.6l0.5,0.5
						c0.1,0.1,0.2,0.2,0.2,0.4c0,0.1-0.1,0.1-0.2,0.1l0,0l-0.6-0.2l-0.3,0.2l-0.1,0.3c-0.1,0.1-0.2,0.3-0.4,0.3l-0.4,0.1
						c-0.1,0-0.1,0.1-0.1,0.2c0,0.1,0.1,0.3,0.3,0.6c0.4,0.5,0.5,0.6,0.8,0.6h0.7c0.1,0,0.3,0,0.4,0.1c0.1,0.1,0.1,0.2,0.1,0.3
						c0,0.2-0.2,0.3-0.5,0.3c-0.5,0.1-0.8,0.5-0.9,1c-0.1,0.4,0.1,0.7,0.3,0.7c0.1,0,0.3,0,0.4-0.1l0.6-0.5l0.7-0.4l0.5-0.4l0.7-0.3
						l0.9-0.1l1.4-0.3c0.2,0,0.4,0,0.6,0c0.4,0,0.6-0.1,0.6-0.3c0-0.1,0-0.2,0-0.2l-0.4-0.7c-0.1-0.3-0.1-0.5,0-0.8
						c0.1-0.3,0.1-0.5,0.1-0.5l-0.4-0.4c-0.1-0.1-0.1-0.3-0.1-0.4c0-0.1,0.1-0.3,0.1-0.4c0.1-0.2,0.2-0.3,0.3-0.5
						c0-0.1-0.1-0.2-0.2-0.2h-0.1c-0.3,0-0.6,0.2-0.7,0.5c0,0,0,0,0,0l-0.1,0.5c0,0.2-0.2,0.3-0.4,0.3c-0.1,0-0.2,0-0.2-0.1
						l-0.3-0.3c-0.8-0.1-1.6,0.3-2,1c-0.1,0.2-0.2,0.3-0.2,0.2s-0.2-0.1-0.2-0.3l-0.2-0.5l-0.4-0.6c-0.1-0.3-0.2-0.5-0.2-0.8
						l-0.1-0.6c0,0,0-0.1,0-0.1c0-0.2,0.1-0.3,0.2-0.3l0.4,0.1l0.6-0.2L238,34l0.5-0.2c0.2-0.1,0.3-0.2,0.3-0.3c0-0.1,0-0.2-0.1-0.2
						c-0.1-0.1-0.2-0.1-0.3-0.2h-0.1l-0.2,0l-0.1-0.4l-0.1-0.5l-0.2-0.4c0-0.1,0-0.1,0-0.2c0-0.1,0-0.1,0.1-0.1c0.1,0,0.1,0,0.2,0.1
						l0.2,0.4c0.2,0.3,0.5,0.4,0.8,0.5c0.1,0,0.2,0.1,0.3,0.1c0.1,0,0.3,0,0.3-0.1l0.4-0.7c0.1-0.2,0.4-0.3,0.9-0.4
						c0.3,0,0.4-0.1,0.4-0.3s-0.3-0.6-0.9-0.9c-0.4-0.1-0.7-0.3-1-0.5l-1-0.7l-1.2-0.4l-0.4-0.1l0,0c-0.2,0-0.5,0.1-0.5,0.3
						c0,0,0,0,0,0c0,0,0,0,0,0.1l0.1,0.4c0,0.1,0,0.2-0.1,0.3c0,0-0.1,0-0.1,0l0,0c-0.2,0-0.2-0.1-0.3-0.2c0-0.1-0.1-0.2-0.1-0.4
						c0-0.3-0.2-0.6-0.5-0.6c-0.1,0-0.1,0-0.2,0l-0.2,0.2l0,0l-0.2,0.1c-0.1,0.1-0.2,0.1-0.3,0c-0.4-0.1-0.8-0.3-1.1-0.7
						c-0.1-0.2-0.2-0.4-0.2-0.7c0-0.2,0.1-0.3,0.2-0.4l0.4-0.3c0.1-0.1,0.2-0.2,0.2-0.3c0-0.2-0.1-0.3-0.2-0.3c-0.2,0-0.3,0-0.4,0.1
						c0,0-0.1,0-0.1,0l-1.3,0.5c0,0-0.1,0-0.1,0c-0.1,0-0.2-0.1-0.2-0.2c0,0,0,0,0,0c0,0,0,0,0,0c0.1-0.1,0.2-0.2,0.3-0.2
						c0.3-0.2,0.7-0.3,1.1-0.5c0.3-0.1,0.6-0.2,0.7-0.4s0-0.2-0.1-0.2c-0.1,0-0.3,0-0.4,0.1c-0.1,0-0.2,0-0.3,0
						c-0.1,0-0.2-0.1-0.2-0.1c0,0,0-0.1,0-0.1c0-0.1,0.1-0.2,0.1-0.2c0.1-0.1,0.1-0.2,0.1-0.2c0-0.2-0.5-0.5-1.1-0.5
						c-0.4-0.1-0.9,0-1.3,0.2c-0.9,0.4-1.6,1.1-1.9,2c0,0.3,0,0.6,0.1,0.9c0.1,0.2,0.1,0.4,0,0.6l-0.2,0.5l0,0c0,0.1,0,0.2,0.1,0.2
						c0.2,0,0.4-0.1,0.6-0.4c0.1-0.1,0.2-0.3,0.3-0.4l0.6-0.3l0.6-0.5c0.1,0,0.1-0.1,0.2-0.1c0,0,0.1,0.1,0.1,0.1
						c0,0.1-0.1,0.1-0.1,0.2l-0.4,0.3l-0.6,0.5c-0.3,0.3,0,0.7-0.3,0.8c-0.1,0.1-0.3-0.1-0.3-0.1l-0.2-0.1h-0.1
						c-0.1,0.3-0.3,0.5-0.4,0.5l-0.4-0.2c-0.4,0-1,0.4-1.6,1.1c-0.2,0.3-0.3,0.5-0.4,0.9c0,0.2,0,0.5,0.2,0.6
						c0.1,0.2,0.2,0.4,0.2,0.4l-0.2,0.4c0,0,0,0.1,0,0.1c0,0,0,0.1,0,0.1c0,0,0,0.1,0,0.1c-0.1,0.1-0.2,0.2-0.4,0.2h-0.4
						c-0.1,0-0.2,0.1-0.2,0.2c0,0,0,0,0,0c0,0.2,0.1,0.4,0.3,0.6l0,0l1.1,0.9l0.3,0.3c0,0,0.1,0.1,0.1,0.1c0.2,0,0.3,0,0.4-0.1
						c0.1-0.1,0.4-0.6,0.6-0.2l0,0c0,0,0,0,0,0.1l0,0c0,0.1,0,0.1,0,0.2l-0.1,0.1c0,0.1-0.1,0.1-0.1,0.2l0,0c0,0-0.1,0.1-0.1,0.2
						c-0.1,0.2-0.3,0.3-0.5,0.4c-0.6,0.3-1.2,0.8-1.6,1.4c-0.3,0.4-0.5,0.8-0.6,1.3l0,0c0,0.1,0,0.2,0.1,0.3l0.7,0.3l1,1.2
						c0.2,0.2,0.3,0.5,0.3,0.8l0,0c0,0.1,0,0.2,0,0.3c0,0.1,0,0.3,0,0.4l0.1,0.2v0.6c0,0,0.1,0.1,0.2,0.1c0,0,0.1,0,0.1,0
						c0.1-0.1,0.3-0.1,0.4-0.2c0,0,0.1,0,0.1,0l0,0l0,0c0,0.1-0.1,0.2-0.2,0.3l-0.3,0.3l0,0l0,0h-0.1l0,0c0,0-0.1,0-0.1,0
						c-0.3,0-0.5-0.5-0.5-1.1c0-0.6-0.2-1.1-0.4-1.7c-0.3-0.7-0.9-1.3-1.3-1.3c-0.1,0-0.3,0.1-0.3,0.2c0,0,0,0,0,0
						c0,0.1,0.1,0.2,0.3,0.3c0.4,0.4,0.7,0.8,0.9,1.2c0.2,0.3,0.3,0.5,0.3,0.8v0.6l0.2,0.8c0,0,0,0.5,0,0.6s-0.2,0.5-0.5,0.6
						c-0.3,0.2-0.5,0.4-0.7,0.7l-0.3,0.2c-0.1,0-0.1,0.1-0.1,0.2c0,0,0,0.1,0,0.1c0.1,0.2,0.3,0.4,0.6,0.4c0.1,0,0.2,0,0.2,0
						c0.1,0,0.1-0.1,0.2,0s0.3,0,0.3,0.4l2.4,8.5c0,0.1,0.1,0.2,0.2,0.2c0.2,0,0.3-0.1,0.4-0.4c-0.1-0.8-0.2-1.5-0.6-2.2
						c-0.9-2.4-1.6-4.9-1.9-7.4v-0.1c0-0.1,0-0.5,0.8-1.1l0,0l0,0c0.3-0.2,0.5-0.3,0.6-0.2h0.1c0.1,0.1,0.2,0.3,0.4,0.8l0,0
						c0.1,0.5,0.3,1.3,0.5,2.4c0.2,1.3,0.4,2.3,0.5,2.9c0.1,0.9,0.4,1.7,1,2.4c0.4,0.4,0.5,0.7,0.5,0.9s-0.1,0.2-0.1,0.2
						c-0.3-0.1-0.5-0.3-0.6-0.6l-0.4-0.5c-0.1-0.1-0.1-0.2-0.2-0.2c-0.1,0-0.1,0-0.1,0.1l-0.1,1l-0.2,0.5l0.1,0.5l1.1,2.3l0.1,0.2
						l0,0l1,2.8c0.1,0.3,0.1,0.4,0.1,0.4c0,0.2,0,0.3,0,0.5c0,0.4,0.1,0.9,0.2,1.3c0,0.2,0.1,0.4,0.1,0.6c0.1,0.4,0.3,0.7,0.4,0.7
						l0.2,0.1l0.7,2.1l0.5,0.5l0.5,1l0.4,0.5l0.1,0.1l0.5,0.7l1.4,0.7l0.5,0.3l0.8,0.2l0.6,0.4l0.3-0.2V68l0.1-0.3l-0.1-1.2l0,0
						c0-0.1,0-0.1,0-0.2c0-0.2,0.1-0.4,0.2-0.5c0.1-0.2,0.1-0.2,0.2-0.2c0.2,0,0.3,0.4,0.3,0.8c0,0.1,0,0.1,0,0.2
						c0,0.3-0.1,0.6-0.2,0.9c-0.1,0.1-0.1,0.3-0.2,0.4c0,0.3,0.1,0.5,0.2,0.8c0.1,0.5,0.1,1,0,1.4c0,0.5,0,1,0,1.4
						c0.1,0.6,0.1,1.2,0.1,1.9c-0.1,0.7-0.3,1.3-0.6,1.9c-0.2,0.4-0.2,0.4-0.2,0.6c0,0.8,0.2,1.5,0.7,2.1l0.4,0.6l0.1,0.3h-0.2
						c-0.1,0-0.1,0.1-0.1,0.2c0,0.3,0.2,0.5,0.4,0.6l0.4,0.2c0.1,0,0.2,0.1,0.2,0.2v0.4c0,0.1,0.1,0.2,0.3,0.3c0.4,0.3,0.7,0.6,1,1
						c0.2,0.2,0.4,0.4,0.6,0.4c0.2,0,0.3,0,0.4-0.5l0.2-0.6L242.9,81.1z"/>
				</g>
				<g>
					<path id="Fill-56" class="st0" d="M244.8,63.6c-0.1,0-0.2,0.1-0.2,0.2l-0.1,0.3l-0.2,0.4c0,0,0,0.1-0.1,0.1
						c0,0.1,0.1,0.1,0.3,0.1c0.4,0.1,0.8-0.2,0.9-0.6l0,0l-0.3-0.4C245,63.7,244.9,63.7,244.8,63.6"/>
				</g>
				<g>
					<path id="Fill-57" class="st0" d="M246.1,64.9h0.3h0.8c0.3,0,0.5-0.2,0.5-0.6c0-0.3,0-0.7-0.1-1l-1.2-2.9l-0.6-1.8
						c0,0,0,0-0.1,0c-0.1,0-0.2,0-0.2,0c-0.3,0.1-0.5,0.4-0.6,0.7c0,0.3,0.2,0.7,0.8,1.6c0.2,0.4,0.4,0.8,0.4,1.3
						c0,0.2-0.1,0.2-0.1,0.2c-0.2,0-0.5-0.5-0.6-1.1c-0.2-1-0.6-1.7-1.1-1.7c-0.1,0-0.2,0-0.3,0c-0.2,0.1-0.4,0.1-0.4,0.2
						s0.2,0.6,0.7,1.1c0.5,0.7,0.9,1.4,1.1,2.2l0.5,1.5L246.1,64.9"/>
				</g>
				<g>
					<path id="Fill-58" class="st0" d="M247.9,67.3c-0.1,0.3-0.3,0.4-0.5,0.4c-0.2,0-0.4,0-0.5-0.2l0,0c-0.1-0.2-0.2-0.4-0.1-0.6
						c0-0.1,0-0.2,0-0.2c0-0.1,0-0.1,0-0.2c0-0.2,0.1-0.3,0.3-0.3s0.1,0.1,0.3,0.2C247.8,66.7,248,67,247.9,67.3z M247.4,68.5
						c-0.1,0.1-0.2,0.1-0.3,0.1c-0.1,0-0.1,0-0.1-0.1l0,0c0,0,0-0.1,0-0.1c0-0.1,0.1-0.1,0.1-0.2c0.1,0,0.1,0,0.2,0
						c0.1,0,0.2,0.1,0.2,0.1C247.5,68.4,247.4,68.5,247.4,68.5z M249,66.8l-0.3-0.8l-0.3-1.3l-0.2-0.1l-0.2,0.3l-0.2,0.1
						c-0.1,0-0.1,0.1-0.1,0.2c0.1,0.3,0.2,0.5,0.4,0.7c0.1,0.1,0.2,0.3,0.2,0.4c0,0.1-0.1,0.2-0.2,0.2c-0.1,0-0.2-0.1-0.2-0.2
						l-0.6-0.7c-0.1-0.1-0.1-0.1-0.2-0.1c-0.2,0-0.3,0.1-0.4,0.2c-0.6,0.4-0.7,0.5-0.7,0.7l0,0l0.3,1.2l0,0v0.5l0.1,0.7l0,0l0.2,1.2
						c0.1,0.7,0.2,0.8,0.5,0.8s0.7-0.1,1-0.6c0.6-0.8,1-1.7,1.2-2.7C249.1,67.1,249.1,66.9,249,66.8L249,66.8z"/>
				</g>
				<g>
					<path id="Fill-59" class="st0" d="M245,65.4c0-0.2-0.1-0.3-0.2-0.4c0,0,0,0,0,0c-0.5,0-0.8,0.1-0.8,0.3v0.1
						c0,0.1,0.1,0.2,0.4,0.2C244.8,65.7,245,65.7,245,65.4"/>
				</g>
				<g>
					<path id="Fill-60" class="st0" d="M239.5,51.9L239.5,51.9c-0.1,0-0.2,0.1-0.2,0.3c0,0.3,0,0.5,0.2,0.8l0.2,0.3l0.1,0.2
						c0,0,0.1,0.1,0.1,0.1c0.1,0,0.2,0,0.2-0.1c0,0,0,0,0,0l0,0c0-0.2,0-0.4,0-0.6l-0.4-0.5C239.7,52.1,239.6,52,239.5,51.9"/>
				</g>
				<g>
					<path id="Fill-61" class="st0" d="M244.8,76.8l0.1-0.5l-1.1-4.8l-0.2-1.7c0-0.1-0.1-0.2-0.2-0.2c-0.1,0-0.2,0.1-0.2,0.3v0.1
						c0,0.3,0,0.5-0.1,0.6l-0.6,0.6c-0.1,0.1-0.1,0.3-0.1,0.4v0.1c0,0.2,0.1,0.4,0.2,0.4c0,0,0.1,0,0.2,0l0.1-0.2
						c0,0,0.1-0.1,0.2-0.1c0,0,0.1,0,0.1,0v0.4l0.4,0.9v0.5l0.2,0.8l-0.1,0.6l0.1,0.3l0.4,0.4l0.1,0.6l-0.1,0.5l-0.3,0.5l-0.1,0.4
						c0,0-0.1,0.1-0.1,0.1c-0.1,0-0.1-0.1-0.1-0.3c0-0.1,0-0.2,0.1-0.3c0.1-0.1,0.1-0.3,0.1-0.5c0-0.3,0-0.7-0.1-1l-0.4-0.3
						c-0.1-0.1-0.2-0.4-0.1-0.8c0-0.2,0-0.4,0-0.6l-0.4-0.6c-0.1-0.2-0.1-0.4-0.1-0.6c0-0.5,0-0.7-0.2-0.7s-0.3,0.1-0.4,0.4
						c-0.2,0.3-0.4,0.6-0.4,0.9c0,0.7,0.3,1.4,0.6,2c0.2,0.4,0.4,0.8,0.4,1.3l-0.2,1.1l0.1,1.4c0,0.4,0.2,0.6,0.4,0.6
						c0.1,0,0.2,0,0.3-0.1l0.5-0.7l0.3-0.3c0.3-0.3,0.4-0.8,0.4-1.2c0-0.1,0-0.2,0-0.3L244.8,76.8"/>
				</g>
				<g>
					<path id="Fill-62" class="st0" d="M244.4,81.6l-0.3-0.1c-0.1,0-0.1-0.2-0.1-0.4c0-0.3-0.1-0.6-0.2-0.6c-0.2,0-0.3,0-0.5,0
						l0.1,0.6l-0.2,0.6V82c0,0.1-0.1,0.2-0.1,0.2c-0.1,0.1-0.2,0.3-0.3,0.5c0,0.1,0.1,0.3,0.3,0.3c0.3,0,0.5-0.1,0.7-0.3l0.3-0.4
						c0.2-0.3,0.3-0.4,0.3-0.5S244.4,81.6,244.4,81.6"/>
				</g>
				<g>
					<path id="Fill-63" class="st0" d="M229.4,34.5L229.4,34.5"/>
				</g>
				<g>
					<path id="Fill-64" class="st0" d="M231.9,69.6l0.3-0.7l0.2-0.4l0,0c0-0.1,0-0.3-0.1-0.4c0-0.1,0-0.2,0-0.3
						c0-0.1,0.2-0.2,0.3-0.1c0.2,0,0.4,0.2,0.4,0.4c0,0.2-0.1,0.5-0.2,0.7c-0.2,0.3-0.3,0.6-0.4,0.7C232,70.1,231.9,69.8,231.9,69.6
						z M231.8,63.8c0,0-0.1-0.1-0.2-0.2c-0.1-0.2-0.2-0.4-0.2-0.7c0-0.1,0.1-0.2,0.2-0.2c0,0,0,0,0,0c0.1,0,0.3,0.2,0.2,0.4
						c0,0,0,0,0,0.1v0.2l0,0L231.8,63.8z M229.1,76.8c-0.2,0.2-0.3,0.3-0.4,0.3c-0.1,0-0.2,0-0.2-0.1c-0.1-0.1-0.1-0.1-0.1-0.2l0,0
						l0.4-0.1c0.1,0,0.2-0.2,0.3-0.6c0-0.1,0.1-0.2,0.1-0.3c0-0.1,0-0.1,0-0.2c0-0.1,0-0.3,0-0.4c0-0.2,0.1-0.3,0.2-0.3
						s0.1,0.1,0.1,0.2v0.6l0.1,0.5l0,0c0,0.1,0,0.1,0,0.1C229.2,76.5,229.2,76.7,229.1,76.8L229.1,76.8z M228.6,72.8
						c0.1-0.1,0.2-0.2,0.3-0.2s0.1,0.1,0.1,0.2c0,0.1,0.1,0.2,0.2,0.2h0.2c0,0,0,0.1,0,0.1c0,0,0,0.1,0,0.1l0,0
						c-0.1,0.1-0.3,0.2-0.5,0.1c-0.3,0-0.4-0.1-0.4-0.3C228.6,72.9,228.6,72.8,228.6,72.8L228.6,72.8z M234.3,67.9l-0.4,0.3l0,0
						c-0.1,0-0.2-0.2-0.2-0.3s0-0.1,0.1-0.1l0.4-0.1c0.1,0,0.1-0.1,0.1-0.2c0-0.2-0.4-0.4-0.9-0.5c-0.7-0.1-1.2-0.6-1.2-1.1
						c0-0.2,0.1-0.3,0.2-0.3c0.2,0,0.3,0.2,0.4,0.3l0.3,0.5l0.6,0.3L234,67l0.4,0.1c0-0.1-0.1-0.2-0.1-0.3c-0.3-0.5-0.6-1-1-1.4
						c-0.4-0.5-0.7-1.1-0.9-1.7l-0.1-0.2l0,0l-0.2-0.8c-0.1-0.3-0.3-0.6-0.6-0.7l0,0c-0.1,0-0.1,0-0.2,0.1l-0.1,0.3l-0.2-0.1
						l-0.7-1.2l-0.7-0.8l-0.1-0.4l0.1-0.4c0.1,0.3,0.2,0.4,0.4,0.4c0.1,0,0.2-0.1,0.3-0.2c0,0,0,0,0,0l-0.1-0.8c0,0,0.1-0.1,0.2-0.1
						s0.2,0.2,0.2,0.5V60l0.3,0.6c0.2,0.4,0.5,0.7,0.6,0.7s0.1,0,0.2-0.1l-0.4-1.8l-0.1-0.9l-1.1-2.5l-0.2-0.5c0,0-0.1-0.1-0.1-0.1
						c-0.1,0-0.1,0-0.2,0.4c0,0.1-0.1,0.3-0.2,0.4c-0.1,0.1-0.1,0.2-0.1,0.3l0.4,1.5c0,0,0,0.1-0.1,0.2c-0.1,0.1-0.2,0.3-0.3,0.5
						c-0.1,0.3-0.2,0.5-0.2,0.5c0,0.3,0,0.7,0.1,1c0.1,0.5,0.2,1.1,0.3,1.6l0.2,0.5c0.6,1.3,1.1,2.3,1.5,3c0,0.1,0.1,0.1,0.1,0.2
						c0,0.1-0.1,0.2-0.2,0.2c-0.1,0-0.2-0.1-0.2-0.2l-0.3-0.3l-0.3-0.4l-0.1,1.6c0,0.2-0.1,0.4-0.2,0.5c-0.1,0.2-0.2,0.4-0.2,0.6
						l-0.2,1.6l-0.2,0.4l-0.2,1c-0.4,1-0.6,1.7-0.9,2.2c-0.1,0.2-0.2,0.4-0.2,0.6c0,0.1,0,0.3,0,0.4l-0.1,0.8l0.1,0.6l-0.1,0.5
						c0.2,0.4,0.2,0.8,0.1,1.2c-0.1,0.1-0.1,0.2-0.2,0.4c0,0.1,0,0.2,0.1,0.2l0.5,0.2H228l0.9,0.3l0.6-0.4V77l0.3-0.4l0.1-0.5l0,0
						v-0.2l-0.1-1.1c0-0.3,0-0.5,0-0.7c0-0.3,0.1-0.5,0.2-0.8l0,0c0.5-1,1.3-1.9,2.2-2.5l0.8-0.9l0,0l1.4-1.5
						c0.1-0.2,0.2-0.3,0.2-0.5C234.8,67.6,234.2,67.9,234.3,67.9L234.3,67.9z"/>
				</g>
				<g>
					<path id="Fill-65" class="st0" d="M241.4,85.4c0,0.2-0.1,0.3-0.4,0.4l-0.3-0.2c-0.1,0-0.1-0.1-0.1-0.2c0-0.1,0.2-0.2,0.4-0.2
						h0.1c0.1,0,0.2,0,0.2,0.1C241.4,85.3,241.4,85.4,241.4,85.4z M242.4,82.8l-0.3-0.2l-0.4-0.5c0,0-0.1-0.1-0.1-0.1
						c-0.2,0-0.2,0.1-0.3,0.6c-0.1,0.2-0.1,0.3-0.2,0.5c-0.1,0.2-0.2,0.3-0.2,0.5c0,0.3-0.1,0.5-0.3,0.7l-0.3,0.3v0.5l-0.2,0.4l0,0
						c0,0.2,0,0.5,0.1,0.7c0,0.2,0.1,0.4,0.1,0.6c0,0.2-0.1,0.3-0.2,0.4l-0.4,0.4c-0.1,0.1-0.1,0.2-0.2,0.3c0,0,0,0,0,0.1l0.3,0.3
						c0.1,0.1,0.2,0.2,0.3,0.2h0.3c0.1,0,0.2,0.1,0.2,0.2c0,0.1,0,0.1-0.1,0.2c-0.1,0.1-0.2,0.2-0.4,0.2c-0.2,0-0.3-0.1-0.4-0.3
						c-0.1-0.1-0.2-0.2-0.3-0.2c-0.1,0-0.2,0-0.3,0.1c-0.1,0.1-0.2,0.1-0.2,0.2l-0.1,0.8c0,0.2-0.1,0.3-0.1,0.4
						c0,0.3,0.1,0.4,0.4,0.5h0.1l0.5-0.3l1.5-1c0.2-0.1,0.3-0.3,0.3-0.5c0-0.1,0-0.3-0.1-0.4l-0.3-0.7c0-0.1-0.1-0.2-0.1-0.3
						c0-0.4,0.3-0.7,0.6-0.9c0.1,0,0.2-0.1,0.2-0.2c0.1-0.1,0.1-0.2,0.1-0.3c0-0.2,0-0.4,0-0.5c0-0.1,0-0.3,0-0.4l0,0
						c0-0.4,0-0.8,0.2-1.1c0.2-0.3,0.4-0.6,0.5-1C242.7,83,242.6,82.8,242.4,82.8L242.4,82.8z"/>
				</g>
				<g>
					<path id="Fill-66" class="st0" d="M232.7,33.2c0,0,0.1,0,0.1,0l0.4-0.1l0.1-0.1l-0.4-0.4l-0.3-0.6c0,0-0.1-0.1-0.1-0.1
						c-0.1,0-0.1,0.1-0.1,0.1v0.6C232.4,33.1,232.4,33.1,232.7,33.2"/>
				</g>
				<g>
					<path id="Fill-67" class="st0" d="M257,52.7l-0.3-0.1l-0.4-0.1l-0.5-0.5c-0.1-0.1-0.3-0.1-0.4-0.2l0,0l-0.4-0.1
						c-0.1,0-0.3-0.1-0.3-0.1c0-0.1,0.1-0.2,0.1-0.2c0.1-0.1,0.1-0.2,0.1-0.3l-0.1-0.2h0.4l0.4,0.2v0.3l0.3,0.3l0.1-0.1
						c0,0,0.1,0,0.1,0c0,0,0.1,0,0.1,0.1c0,0.1,0,0.1,0,0.2c0,0.1,0.1,0.2,0.4,0.3s0.6,0.3,0.6,0.5C257.1,52.7,257.1,52.8,257,52.7z
						 M257.6,51.7l-0.6-0.2c-0.2-0.1-0.3-0.3-0.4-0.4c-0.4-0.5-1-0.7-1.6-0.6l-0.9,0.1c-0.3,0-0.4,0.1-0.4,0.2c0,0.1,0,0.2,0,0.2
						c0,0.2,0.1,0.4,0.2,0.6c0.1,0.2,0.2,0.3,0.4,0.4l0.7,0.3l0,0l0.8,0.4l0.8,0.5c0.2,0.1,0.3,0.2,0.5,0.2c0.5,0.1,0.9-0.3,0.9-0.7
						c0,0,0-0.1,0-0.1C258.1,52.2,257.9,51.8,257.6,51.7L257.6,51.7z"/>
				</g>
				<g>
					<path id="Fill-68" class="st0" d="M250.3,85.6h-0.2c-0.2,0-0.3,0-0.5,0l-0.2-0.2c-0.1-0.1-0.2-0.1-0.2-0.1
						c-0.2,0-0.3,0-0.3,0.2l0,0v0.2c0,0.2-0.1,0.4-0.1,0.6c0,0.1,0,0.1,0,0.2c0,0.2,0,0.3,0.2,0.4c0,0,0,0,0.1,0
						c0.2,0,0.4,0,0.6-0.1c0.8-0.2,1-0.4,1-0.8S250.5,85.6,250.3,85.6"/>
				</g>
				<g>
					<path id="Fill-69" class="st0" d="M249.1,62.5l-0.2,0.3l-0.2,0.5l-0.4,0.3l0,0c0,0.1,0,0.2,0.1,0.2c0,0.1,0.1,0.1,0.2,0.1l0,0
						c0.1,0,0.2-0.1,0.3-0.2c0.3-0.2,0.5-0.4,0.6-0.8l0.3-1.2l0.2-0.5l0.2-0.8l-0.1-0.5v-0.6l-0.2-0.4v-0.3c0-0.3-0.1-0.5-0.3-0.5
						s-0.2,0.2-0.2,0.4c0,0.4,0.1,0.8,0.2,1.2c0.1,0.6,0.1,1.1,0,1.7C249.4,61.8,249.3,62.2,249.1,62.5"/>
				</g>
				<g>
					<path id="Fill-70" class="st0" d="M251.9,66.5c0,0.3-0.3,0.5-0.9,0.6c-0.1,0-0.2,0-0.3,0c-0.1,0-0.2-0.1-0.2-0.1
						c0-0.1,0-0.1,0.1-0.2c0-0.1,0.2-0.2,0.3-0.2l0.4,0.1c0,0,0.1-0.1,0.3-0.2s0.2-0.2,0.2-0.1S251.9,66.3,251.9,66.5L251.9,66.5z
						 M248.5,50.2c-0.5,0-1-0.2-1.4-0.3c-0.1,0-0.2-0.1-0.2-0.1c-0.1,0-0.1,0-0.1,0.1s0.1,0.5,0.5,0.9c0.2,0.3,0.4,0.6,0.4,1v0.4
						l0.2,0.8l-0.3,1.1l-0.2,0.4l-0.2,0.1l-0.1,0.3l-0.6,0.4v0.2l0.2,0.2l-0.1,0.1l0.3,0.3v0.5L247,58l-0.2,0.4l-0.3,0.2
						c-0.1,0.1-0.2,0.1-0.2,0.2c0,0.4,0.2,0.7,0.4,1c0.4,0.6,0.8,1.2,1,1.9c0.1,0.5,0.2,0.8,0.3,0.9s0.1,0.3,0.2,0.3
						c0.2,0,0.3-0.1,0.4-0.3l0.2-0.8c0-0.1,0.1-0.2,0.2-0.5c0.3-0.6,0.3-1.2,0.1-1.8c-0.2-0.5-0.4-0.8-0.3-0.9l0.2-0.3v-0.4v-0.7
						v-0.6c0-0.1,0.1-0.2,0.2-0.3l0,0c0.2,0,0.2,0.3,0.3,1.1c0,0.3,0.1,0.6,0.4,0.8l0.3,0.3l0.2,1.3v0.9l-0.2,0.9l-0.3,0.4
						c0,0.2,0,0.3,0,0.5c0,0.2,0,0.4-0.2,0.6l-0.2,0.2l-0.2,0.5l-0.2,0.4c-0.2,1.2,0,1.6,0.8,2.1c0.1,0.1,0.3,0.2,0.3,0.4
						c0,0,0,0.1,0,0.1c0,0.1,0,0.2-0.1,0.1c0,0-0.1,0-0.1,0c0.6,0.8,0.9,1.8,0.9,2.8c0,0.4-0.1,0.6-0.2,0.7h-0.2l-0.1,0.3l0.2,0.5
						l-0.1,0.7l-0.2,0.4L250,73v0.9l0.1,0.8v0.6c0,0.2,0.1,0.4,0.3,0.4h0.5c0.2,0,0.3,0.2,0.3,0.3c0,0,0,0,0,0c0,0.1,0,0.2-0.1,0.2
						c-0.2,0.2-0.3,0.3-0.6,0.3l-0.3,0.1h-0.1L250,77l-0.1,0.4c0,0.1,0,0.3,0.1,0.4c0,0.5,0,0.9-0.1,1.4l-0.1,0.4
						c0,0.3-0.1,0.6-0.3,0.9c-0.2,0.3-0.4,0.6-0.5,1v1.4l0.2,0.4v0.4l-0.2,0.6c0,0.3,0.1,0.5,0.3,0.7c0.1,0.2,0.3,0.3,0.5,0.3h0.6
						c0.3,0,0.4-0.1,0.5-0.3c0-0.1,0-0.1,0-0.2l-0.5-0.7c-0.1-0.2-0.2-0.4-0.2-0.6c0-0.3,0.1-0.5,0.3-0.7c0.2-0.2,0.2-0.3,0.2-0.4
						l-0.1-0.3c0-0.2,0.1-0.3,0.2-0.5c0.1-0.4,0.2-0.9,0.2-1.3c0-0.5,0.1-0.9,0.2-1.3l0.7-3.5l0.1-0.2l0.4-0.6
						c0.1-0.1,0.1-0.3,0.1-0.4c0-0.1,0-0.2,0-0.2c0-0.5-0.1-0.6-0.2-0.7c-0.1,0-0.2,0-0.2,0.1l-0.3,0.3h-0.1l-0.2-0.5l-0.4-1.1
						l0.2-1.4v-0.6c0-0.1,0.1-0.1,0.2-0.1c0,0,0.1,0,0.1,0.1c0,0.1,0.1,0.2,0.1,0.3V71l-0.1,0.5l0.2,0.5l0.1,0.5
						c0,0.1,0.1,0.1,0.2,0.2c0.1,0,0.3-0.3,0.4-0.6l0.2-1.4l0.3-0.6v-0.8l0.3-0.7c0.1-0.4,0.1-0.8,0.1-1.2c0-0.6,0.2-1.3,0.4-1.8
						l1.4-4c0.1-0.4,0.2-0.8,0.3-1.2c0.3-2.3-0.4-4.6-2-6.4C250.7,51.1,249.7,50.4,248.5,50.2L248.5,50.2z"/>
				</g>
			</g>
		</g>
	</g>
</g>
</svg>
