<?xml version="1.0" encoding="UTF-8"?>
<svg width="20px" height="15px" viewBox="0 0 20 15" version="1.1" xmlns="http://www.w3.org/2000/svg" xmlns:xlink="http://www.w3.org/1999/xlink">
    <!-- Generator: Sketch 53.2 (72643) - https://sketchapp.com -->
    <title>Shape</title>
    <desc>Created with Sketch.</desc>
    <g id="Symbols" stroke="none" stroke-width="1" fill="none" fill-rule="evenodd">
        <g id="Global/NeedHelpModule" transform="translate(-3.000000, -240.000000)" fill="#041E3A" fill-rule="nonzero">
            <path d="M22.9772985,241.708268 C22.9772985,240.772231 22.2281498,240 21.3200908,240 L4.65720772,240 C3.74914869,240 3,240.772231 3,241.708268 L3,253.291732 C3,254.227769 3.74914869,255 4.65720772,255 L21.3427923,255 C22.2508513,255 23,254.227769 23,253.291732 L23,241.708268 L22.9772985,241.708268 Z M4.92273714,241 L21.056141,241 C21.582946,241 22,241.351648 22,241.879121 L22,242.164835 L13.0004142,247 L4.00082835,242.164835 L4.00082835,241.879121 C3.97887814,241.351648 4.39593212,241 4.92273714,241 Z M21.0560976,254 L4.94390244,254 C4.41707317,254 4,253.643002 4,253.107505 L4,243.218809 L12.8463415,248.038282 C12.8902439,248.060594 12.9560976,248.082906 13,248.082906 C13.0439024,248.082906 13.1097561,248.060594 13.1536585,248.038282 L22,243.218809 L22,253.107505 C22,253.643002 21.5829268,254 21.0560976,254 Z" id="Shape"></path>
        </g>
    </g>
</svg>