<?xml version="1.0" encoding="utf-8"?>
<!-- Generator: Adobe Illustrator 22.0.1, SVG Export Plug-In . SVG Version: 6.00 Build 0)  -->
<svg version="1.1" id="Layer_1" xmlns="http://www.w3.org/2000/svg" xmlns:xlink="http://www.w3.org/1999/xlink" x="0px" y="0px"
	 viewBox="0 0 20 20" style="enable-background:new 0 0 20 20;" xml:space="preserve">
<style type="text/css">
	.st0{fill:#999999;}
</style>
<title>UI/Icons/Size-Chart</title>
<desc>Created with Sketch.</desc>
<path class="st0" d="M17.7,7.2H2.3c-0.7,0-1.2,0.5-1.2,1.2v4.1c0,0.2,0.1,0.4,0.4,0.4h17.1c0.2,0,0.4-0.2,0.4-0.4V8.3
	C18.9,7.7,18.4,7.2,17.7,7.2z M16.9,8.9c-0.2,0-0.4,0.1-0.4,0.4v2.8h-1v-1.7c0-0.2-0.1-0.4-0.4-0.4c-0.2,0-0.4,0.1-0.4,0.4v1.7h-1
	v-1.7c0-0.2-0.1-0.4-0.4-0.4s-0.4,0.1-0.4,0.4v1.7h-1v-1.7c0-0.2-0.1-0.4-0.4-0.4c-0.2,0-0.4,0.1-0.4,0.4v1.7h-1V9.3
	c0-0.2-0.1-0.4-0.4-0.4S9.6,9.1,9.6,9.3v2.8H8.7v-1.7c0-0.2-0.1-0.4-0.4-0.4S8,10.2,8,10.4v1.7H7v-1.7C7,10.2,6.8,10,6.6,10
	s-0.4,0.1-0.4,0.4v1.7h-1v-1.7c0-0.2-0.1-0.4-0.4-0.4s-0.4,0.1-0.4,0.4v1.7h-1V9.3c0-0.2-0.1-0.4-0.4-0.4S2.8,9.1,2.8,9.3v2.8h-1
	V8.3c0-0.2,0.2-0.5,0.5-0.5h15.5c0.3,0,0.5,0.2,0.5,0.5v3.8h-0.9V9.3C17.2,9.1,17.1,8.9,16.9,8.9z"/>
</svg>
