<?xml version="1.0" encoding="UTF-8"?>
<svg width="25px" height="25px" viewBox="0 0 25 25" version="1.1" xmlns="http://www.w3.org/2000/svg" xmlns:xlink="http://www.w3.org/1999/xlink">
    <!-- Generator: Sketch 60.1 (88133) - https://sketch.com -->
    <title>Artboard</title>
    <desc>Created with Sketch.</desc>
    <g id="Artboard" stroke="none" stroke-width="1" fill="none" fill-rule="evenodd">
        <g id="STAR-Copy" transform="translate(2.500000, 2.500000)" fill-rule="nonzero" stroke="#000000">
            <g id="iconfinder_star_1608851">
                <path d="M4.12072529,19.5011819 C4.12039966,19.5004098 4.12093261,19.5 4.12259615,19.5 C4.12353672,19.5 4.12448866,19.4999907 4.12545201,19.4999719 Z M4.13748884,19.4992919 C4.18636218,19.4948526 4.26003234,19.4691397 4.36203131,19.4108696 L10,16.3037017 L10.2413341,16.4367045 L15.6536156,19.4198648 C15.7341428,19.468113 15.7993587,19.4921279 15.8508689,19.498339 C15.8632102,19.4669099 15.8701923,19.4256466 15.8701923,19.3698803 C15.8701923,19.2812934 15.8671595,19.2176946 15.8647676,19.198771 L14.7901597,12.6479159 L14.9670508,12.4670406 L19.3256742,8.01030483 C19.4534428,7.87633695 19.5,7.78621491 19.5,7.75047259 C19.5,7.7229476 19.4769473,7.70309272 19.2515572,7.66504979 L12.9546376,6.70493384 L12.8410403,6.4640691 L10.1316176,0.718822224 C10.0512945,0.53708371 10.0090258,0.5 10,0.5 C9.99097416,0.5 9.94870545,0.53708371 9.86328664,0.729979624 L7.04536244,6.70493384 L6.78209669,6.74507499 L0.756161541,7.66381107 C0.523052667,7.70309272 0.5,7.7229476 0.5,7.75047259 C0.5,7.78359567 0.548093017,7.88041446 0.657468071,8.00530172 L5.20991025,12.6474896 L5.16888622,12.8975738 L4.13724977,19.185332 C4.12407271,19.2820469 4.11778846,19.3479384 4.11778846,19.3698803 C4.11778846,19.426212 4.12491281,19.467745 4.13748884,19.4992919 Z M15.8345298,19.5305364 C15.8338241,19.5313979 15.8331687,19.5322624 15.8325714,19.5331273 C15.8343081,19.5306126 15.8359933,19.5280115 15.8376253,19.5253184 Z" id="Path"></path>
            </g>
        </g>
        <rect id="Rectangle" x="0" y="0" width="25" height="25"></rect>
    </g>
</svg>